<svg width="16" height="16" viewBox="0 0 16 16" fill="none" xmlns="http://www.w3.org/2000/svg">
<path d="M8.80728 3.04761C8.80728 2.63339 8.4715 2.29761 8.05728 2.29761C7.64307 2.29761 7.30728 2.63339 7.30728 3.04761H8.80728ZM7.30728 13.1491C7.30728 13.5633 7.64307 13.8991 8.05728 13.8991C8.4715 13.8991 8.80728 13.5633 8.80728 13.1491H7.30728ZM14.2313 8.97819C14.5313 8.69253 14.5429 8.2178 14.2572 7.91785C13.9715 7.6179 13.4968 7.60632 13.1969 7.89199L14.2313 8.97819ZM8.62293 13.2838L8.10569 12.7407L8.62293 13.2838ZM7.49156 13.2838L6.97432 13.8269L7.49156 13.2838ZM2.91763 7.89199C2.61768 7.60632 2.14295 7.6179 1.85729 7.91785C1.57162 8.2178 1.5832 8.69253 1.88315 8.97819L2.91763 7.89199ZM7.30728 3.04761V13.1491H8.80728V3.04761H7.30728ZM13.1969 7.89199L8.10569 12.7407L9.14017 13.8269L14.2313 8.97819L13.1969 7.89199ZM8.0088 12.7407L2.91763 7.89199L1.88315 8.97819L6.97432 13.8269L8.0088 12.7407ZM8.10569 12.7407C8.09811 12.7479 8.08246 12.757 8.05725 12.757C8.03203 12.757 8.01638 12.7479 8.0088 12.7407L6.97432 13.8269C7.57639 14.4003 8.5381 14.4003 9.14017 13.8269L8.10569 12.7407Z" fill="#292928"/>
</svg>
