<svg width="24" height="24" viewBox="0 0 24 24" fill="none" xmlns="http://www.w3.org/2000/svg">
<g clip-path="url(#clip0_105_2254)">
<circle cx="12.0029" cy="12.5" r="9.5" fill="white"/>
<path d="M11.4004 0C11.7803 0 12.1604 0 12.5403 0C12.5651 0.0060048 12.5895 0.016213 12.6145 0.0174139C13.4354 0.0598479 14.244 0.181745 15.0375 0.396517C18.211 1.2554 20.6459 3.09908 22.334 5.91553C23.2928 7.51501 23.8266 9.2568 23.9647 11.1183C23.9721 11.219 23.9879 11.3193 23.9998 11.4197V12.5596C23.9932 12.5839 23.9819 12.6077 23.9807 12.6323C23.9259 13.6515 23.7566 14.6521 23.4337 15.6199C22.1955 19.3323 19.7358 21.8853 16.0837 23.2748C14.4804 23.8849 12.8093 24.0935 11.0967 23.963C9.89959 23.8717 8.74147 23.6085 7.62519 23.1707C5.82256 22.464 4.27193 21.3887 3.00013 19.9273C1.11423 17.76 0.116645 15.2346 0.00815931 12.3633C-0.0346746 11.2314 0.0912251 10.1135 0.383857 9.01901C1.26275 5.73038 3.18107 3.23199 6.13321 1.53943C7.66943 0.658927 9.33214 0.169135 11.0987 0.0348279C11.1996 0.0272218 11.2999 0.0118094 11.4004 0ZM7.96366 7.09027C8.04072 7.10869 8.10877 7.1231 8.17583 7.14091C8.48107 7.22178 8.79211 7.28643 9.08975 7.38951C9.48286 7.52562 9.58154 7.91733 9.50808 8.20236C9.26409 9.14912 9.03371 10.0995 8.79712 11.0482C8.55393 12.0232 8.31073 12.9982 8.06514 13.9724C7.99648 14.2446 7.78432 14.3937 7.5127 14.3401C7.20306 14.279 6.89741 14.1962 6.59157 14.1167C6.52152 14.0985 6.48849 14.1023 6.45707 14.1765C6.26772 14.6239 6.07216 15.0685 5.87921 15.5142C5.868 15.54 5.85959 15.5671 5.84798 15.5995C6.73248 15.8223 7.60838 16.0428 8.49388 16.2658C8.31053 17.003 8.13119 17.725 7.94925 18.457C8.3924 18.5675 8.82554 18.6755 9.26349 18.7848C9.44563 18.0552 9.62437 17.3399 9.80351 16.6219C10.1584 16.7148 10.5013 16.8042 10.8515 16.8957C10.671 17.6205 10.4937 18.3317 10.3155 19.0468C10.7615 19.1583 11.193 19.266 11.6316 19.3755C11.7234 19.006 11.8131 18.6447 11.9032 18.2836C11.9932 17.9229 12.0841 17.5624 12.1758 17.1976C12.421 17.2354 12.6566 17.276 12.8936 17.3076C13.4868 17.3867 14.0809 17.4211 14.6754 17.3185C15.3367 17.2044 15.8983 16.9143 16.3143 16.3753C16.6457 15.9456 16.8387 15.4518 16.9598 14.9277C17.0454 14.5572 17.0725 14.1839 16.9914 13.8082C16.8695 13.2424 16.5324 12.8269 16.0701 12.5022C15.9298 12.4037 15.781 12.3173 15.6475 12.2326C15.8367 12.1539 16.0405 12.0879 16.2264 11.9884C16.7834 11.6904 17.0815 11.1978 17.2308 10.6003C17.4906 9.56165 17.196 8.73299 16.3383 8.09387C15.8907 7.76021 15.3891 7.53223 14.8689 7.34047C14.7985 7.31445 14.728 7.28803 14.6528 7.26001C14.8335 6.53363 15.0112 5.81905 15.1908 5.09768C14.744 4.98659 14.3129 4.8793 13.8751 4.77022C13.698 5.47958 13.5245 6.17474 13.3495 6.8749C12.9916 6.79023 12.6472 6.70857 12.2957 6.6253C12.4724 5.91613 12.6468 5.21657 12.8233 4.50841C12.3818 4.39792 11.9478 4.28943 11.5081 4.17934C11.3265 4.90592 11.1478 5.6207 10.9662 6.34748C10.0763 6.1251 9.19763 5.90572 8.31313 5.68475C8.19404 6.16393 8.07955 6.6243 7.96366 7.08987V7.09027Z" fill="#F6931A"/>
<path d="M10.2324 15.034C10.4738 14.0662 10.7134 13.1056 10.9558 12.134C11.3549 12.2317 11.747 12.3208 12.1351 12.4243C12.5763 12.542 13.0106 12.6853 13.4053 12.9191C13.5985 13.0336 13.7846 13.1685 13.9492 13.321C14.6125 13.9355 14.3687 15.0976 13.4664 15.3638C13.1255 15.4643 12.7798 15.4873 12.4286 15.4679C11.7222 15.4289 11.0431 15.2493 10.3635 15.071C10.3225 15.0602 10.2819 15.048 10.2324 15.034Z" fill="#F6931B"/>
<path d="M11.2793 10.834C11.5045 9.93186 11.7208 9.06437 11.9408 8.18286C12.1984 8.24291 12.4474 8.29795 12.6948 8.3594C13.1155 8.46389 13.5321 8.58478 13.9094 8.80376C14.0805 8.90324 14.2472 9.02033 14.39 9.15664C14.7222 9.47369 14.8005 9.86741 14.6798 10.304C14.5613 10.7329 14.2711 10.9863 13.8495 11.098C13.489 11.1935 13.1202 11.1935 12.7579 11.1326C12.2669 11.0504 11.7813 10.9367 11.2793 10.8338V10.834Z" fill="#F6931B"/>
</g>
<defs>
<clipPath id="clip0_105_2254">
<rect width="24" height="24" fill="white"/>
</clipPath>
</defs>
</svg>
