<svg width="50" height="50" viewBox="0 0 50 50" fill="none" xmlns="http://www.w3.org/2000/svg">
<path d="M43.1905 9.41403L41.6315 10.4557L41.6315 10.4557L43.1905 9.41403ZM43.1905 35.3476L41.6315 34.3059L41.6315 34.3059L43.1905 35.3476ZM40.4503 38.0878L41.492 39.6468L41.492 39.6468L40.4503 38.0878ZM26.0681 39.7617V37.8867C25.3579 37.8867 24.7087 38.2879 24.3911 38.9231L26.0681 39.7617ZM23.1184 45.6611L21.4414 44.8226L21.4414 44.8226L23.1184 45.6611ZM19.3916 45.6611L17.7146 46.4997L17.7146 46.4997L19.3916 45.6611ZM16.4068 39.6915L18.0839 38.853C17.7788 38.2428 17.1664 37.8465 16.4848 37.8181L16.4068 39.6915ZM9.55075 38.0878L10.5924 36.5288L10.5924 36.5288L9.55075 38.0878ZM6.81055 35.3476L8.36955 34.3059L8.36955 34.3059L6.81055 35.3476ZM6.81055 9.41403L5.25154 8.37234L5.25154 8.37234L6.81055 9.41403ZM9.55075 6.67383L8.50906 5.11482L8.50906 5.11482L9.55075 6.67383ZM40.4503 6.67383L41.492 5.11482L41.492 5.11482L40.4503 6.67383ZM46.7393 22.3808C46.7393 18.9326 46.7416 16.2053 46.5205 14.0316C46.2962 11.8266 45.8266 9.9843 44.7495 8.37234L41.6315 10.4557C42.2283 11.3488 42.5956 12.5027 42.7897 14.4112C42.9871 16.351 42.9893 18.8546 42.9893 22.3808H46.7393ZM44.7495 36.3893C45.8266 34.7774 46.2962 32.935 46.5205 30.73C46.7416 28.5564 46.7393 25.8291 46.7393 22.3808H42.9893C42.9893 25.9071 42.9871 28.4107 42.7897 30.3505C42.5956 32.259 42.2283 33.4128 41.6315 34.3059L44.7495 36.3893ZM41.492 39.6468C42.7812 38.7854 43.8881 37.6785 44.7495 36.3893L41.6315 34.3059C41.0437 35.1857 40.2883 35.941 39.4086 36.5288L41.492 39.6468ZM27.4835 41.6367C30.9317 41.6367 33.659 41.6389 35.8327 41.4178C38.0377 41.1935 39.88 40.7239 41.492 39.6468L39.4086 36.5288C38.5155 37.1256 37.3617 37.4929 35.4532 37.6871C33.5133 37.8844 31.0098 37.8867 27.4835 37.8867V41.6367ZM26.0681 41.6367H27.4835V37.8867H26.0681V41.6367ZM24.7955 46.4997L27.7452 40.6002L24.3911 38.9231L21.4414 44.8226L24.7955 46.4997ZM17.7146 46.4997C19.1733 49.4171 23.3367 49.4171 24.7955 46.4997L21.4414 44.8226C21.4135 44.8782 21.3866 44.8987 21.3675 44.9099C21.342 44.925 21.3031 44.9378 21.255 44.9378C21.2069 44.9378 21.168 44.925 21.1425 44.9099C21.1235 44.8987 21.0965 44.8782 21.0687 44.8226L17.7146 46.4997ZM14.7298 40.53L17.7146 46.4997L21.0687 44.8226L18.0839 38.853L14.7298 40.53ZM8.50906 39.6468C10.6022 41.0454 13.1092 41.4309 16.3289 41.5649L16.4848 37.8181C13.3686 37.6885 11.7691 37.315 10.5924 36.5288L8.50906 39.6468ZM5.25154 36.3893C6.11296 37.6785 7.21986 38.7854 8.50906 39.6468L10.5924 36.5288C9.71271 35.941 8.95737 35.1857 8.36955 34.3059L5.25154 36.3893ZM3.26172 22.3808C3.26172 25.8291 3.25945 28.5564 3.48057 30.73C3.70488 32.935 4.17446 34.7774 5.25154 36.3893L8.36955 34.3059C7.7728 33.4128 7.40547 32.259 7.21132 30.3505C7.01399 28.4107 7.01172 25.9071 7.01172 22.3808H3.26172ZM5.25154 8.37234C4.17446 9.9843 3.70488 11.8266 3.48057 14.0316C3.25945 16.2053 3.26172 18.9326 3.26172 22.3808H7.01172C7.01172 18.8546 7.01399 16.351 7.21132 14.4112C7.40547 12.5027 7.7728 11.3488 8.36955 10.4557L5.25154 8.37234ZM8.50906 5.11482C7.21986 5.97624 6.11296 7.08314 5.25154 8.37234L8.36955 10.4557C8.95737 9.57599 9.71271 8.82065 10.5924 8.23283L8.50906 5.11482ZM22.5176 3.125C19.0693 3.125 16.342 3.12273 14.1684 3.34386C11.9633 3.56817 10.121 4.03774 8.50906 5.11482L10.5924 8.23283C11.4855 7.63608 12.6394 7.26875 14.5479 7.0746C16.4877 6.87727 18.9913 6.875 22.5176 6.875V3.125ZM27.4835 3.125H22.5176V6.875H27.4835V3.125ZM41.492 5.11482C39.88 4.03774 38.0377 3.56817 35.8327 3.34386C33.659 3.12273 30.9317 3.125 27.4835 3.125V6.875C31.0098 6.875 33.5133 6.87727 35.4532 7.0746C37.3617 7.26875 38.5155 7.63608 39.4086 8.23283L41.492 5.11482ZM44.7495 8.37234C43.8881 7.08314 42.7812 5.97624 41.492 5.11482L39.4086 8.23283C40.2883 8.82065 41.0437 9.576 41.6315 10.4557L44.7495 8.37234Z" fill="#6072D8"/>
<circle cx="33.3333" cy="22.9165" r="2.08333" fill="#6072D8"/>
<circle cx="25.0013" cy="22.9165" r="2.08333" fill="#6072D8"/>
<circle cx="16.6654" cy="22.9165" r="2.08333" fill="#6072D8"/>
</svg>
