<svg width="20" height="20" viewBox="0 0 20 20" fill="none" xmlns="http://www.w3.org/2000/svg">
<path d="M18 8C18 8 17.4347 8.57872 16.4762 9.27633M10 11.6667V14M10 11.6667C8.79781 11.6667 7.65755 11.3952 6.63453 11M10 11.6667C11.227 11.6667 12.3894 11.3839 13.4286 10.9754M2 8C2 8 2.59639 8.61053 3.60264 9.33333M2 11L3.60264 9.33333M3.60264 9.33333C4.39139 9.8999 5.43196 10.5354 6.63453 11M5.42857 13.3333L6.63453 11M16.4762 9.27633L18 11M16.4762 9.27633C15.692 9.84705 14.6448 10.4973 13.4286 10.9754M13.4286 10.9754L14.5714 13" stroke="#292928" stroke-width="1.2" stroke-linecap="round"/>
</svg>
