<svg width="24" height="24" viewBox="0 0 24 24" fill="none" xmlns="http://www.w3.org/2000/svg">
<g clip-path="url(#clip0_1_9373)">
<circle cx="12.0029" cy="12.5" r="9.5" fill="white"/>
<path d="M12.6326 24H11.3202C11.2923 23.9923 11.2644 23.9788 11.2355 23.9759C11.0468 23.9576 10.8581 23.9451 10.6693 23.9258C10.0859 23.8642 9.51296 23.7535 8.94584 23.6033C7.95603 23.3414 7.01147 22.9668 6.12276 22.4584C3.51344 20.9651 1.70039 18.8015 0.678809 15.9736C0.466982 15.3873 0.315815 14.7836 0.191607 14.1741C0.140576 13.9237 0.103988 13.6705 0.0741395 13.4163C0.0481425 13.1929 0.0404397 12.9667 0.0231084 12.7423C0.0202199 12.7048 0.0077028 12.6691 0 12.6326C0 12.2031 0 11.7727 0 11.3433C0.0077028 11.326 0.019257 11.3096 0.0211827 11.2923C0.0683624 10.8763 0.101099 10.4584 0.16561 10.0454C0.223381 9.67853 0.306186 9.31554 0.395731 8.95543C0.593116 8.16493 0.878119 7.40621 1.24497 6.67925C2.50534 4.17777 4.40022 2.32139 6.93445 1.12457C7.9878 0.62774 9.09027 0.284003 10.2486 0.139575C10.7521 0.0769898 11.2596 0.0375129 11.766 0.00477602C11.9981 -0.0106296 12.233 0.0105531 12.466 0.024033C12.829 0.0452157 13.1959 0.05003 13.555 0.104912C14.0547 0.180978 14.5554 0.271486 15.0445 0.397619C18.8863 1.39224 22.0223 4.2625 23.3424 8.0802C23.5879 8.78982 23.7776 9.51485 23.8604 10.263C23.9182 10.7868 23.9836 11.3125 23.9913 11.8382C23.999 12.3485 23.9499 12.8608 23.9047 13.3701C23.8739 13.7167 23.8209 14.0634 23.7545 14.4052C23.636 15.0166 23.4714 15.6174 23.2413 16.1961C21.6959 20.0764 18.9065 22.5644 14.8712 23.6485C14.2627 23.8122 13.6397 23.9123 13.01 23.9566C12.8839 23.9653 12.7597 23.9855 12.6336 24.0009L12.6326 24ZM12.3726 20.9737C12.4034 20.9391 12.4381 20.9073 12.4641 20.8707C14.2781 18.3625 16.0912 15.8533 17.9042 13.3451C17.9235 13.3191 17.9379 13.2892 17.9726 13.2334C17.9061 13.27 17.8686 13.2892 17.832 13.3104C17.1301 13.7177 16.4272 14.125 15.7253 14.5332C14.6084 15.1822 13.4905 15.8302 12.3736 16.4791C12.3437 16.4608 12.3139 16.4426 12.2831 16.4243C10.8446 15.5895 9.40705 14.7547 7.96855 13.9208C7.58726 13.6994 7.20404 13.4828 6.82179 13.2632C6.81024 13.2603 6.79868 13.2565 6.78713 13.2536C6.79291 13.2632 6.79772 13.2719 6.8035 13.2815C6.82276 13.3104 6.84201 13.3403 6.86223 13.3691C8.67528 15.8793 10.4893 18.3894 12.3033 20.8996C12.3235 20.9275 12.3495 20.9506 12.3726 20.9757V20.9737ZM6.79676 12.1155C6.78906 12.1242 6.78039 12.1328 6.77269 12.1415C6.80446 12.1723 6.83142 12.2108 6.86801 12.232C8.65987 13.2738 10.4527 14.3147 12.2455 15.3545C12.286 15.3776 12.336 15.3863 12.3813 15.4017C12.4246 15.3853 12.4718 15.3748 12.5113 15.3516C13.1496 14.9829 13.788 14.6122 14.4254 14.2415C15.4817 13.6281 16.5389 13.0148 17.5932 12.3995C17.7261 12.3225 17.8484 12.2282 17.9764 12.1415C17.961 12.1145 17.9475 12.0866 17.9312 12.0597C16.1152 9.0989 14.2983 6.13813 12.4814 3.17737C12.4554 3.135 12.4208 3.09841 12.39 3.05894C12.311 3.02139 12.3129 3.10227 12.2937 3.13308C10.4777 6.08806 8.66276 9.04498 6.84972 12.0019C6.82757 12.0375 6.81216 12.078 6.79387 12.1155H6.79676Z" fill="#627EE9"/>
<path d="M12.3701 9.65073C12.3711 9.58814 12.374 9.52556 12.374 9.46297C12.374 7.39381 12.374 5.32368 12.374 3.25451C12.374 3.18904 12.3845 3.12357 12.3894 3.05713C12.4202 3.09661 12.4548 3.13319 12.4808 3.17556C14.2977 6.13632 16.1137 9.09709 17.9306 12.0579C17.9469 12.0848 17.9614 12.1118 17.9758 12.1397C17.9354 12.1262 17.893 12.1156 17.8545 12.0983C16.4324 11.4628 15.0102 10.8264 13.5871 10.1918C13.1847 10.0118 12.7803 9.83559 12.3768 9.65843L12.3691 9.64976L12.3701 9.65073Z" fill="#C0CBF6"/>
<path d="M6.79364 12.1155C6.92748 12.0645 7.06421 12.0183 7.19515 11.9605C8.84163 11.2259 10.4881 10.4893 12.1336 9.75367C12.2116 9.71901 12.2915 9.68531 12.3695 9.65161L12.3772 9.66028C12.3762 9.68339 12.3743 9.70649 12.3743 9.73057C12.3743 11.586 12.3743 13.4414 12.3743 15.2978C12.3743 15.3324 12.3782 15.3681 12.3811 15.4027C12.3358 15.3873 12.2857 15.3796 12.2453 15.3555C10.4525 14.3157 8.65965 13.2748 6.86778 12.233C6.8312 12.2118 6.80423 12.1733 6.77246 12.1425C6.78016 12.1338 6.78883 12.1252 6.79653 12.1165H6.79364V12.1155Z" fill="#C0CBF6"/>
<path d="M12.3808 15.4009C12.3788 15.3662 12.374 15.3306 12.374 15.2959C12.374 13.4405 12.374 11.5851 12.374 9.72874C12.374 9.70563 12.3759 9.68156 12.3769 9.65845C12.7803 9.83657 13.1847 10.0128 13.5872 10.1919C15.0093 10.8273 16.4315 11.4638 17.8546 12.0983C17.8931 12.1156 17.9354 12.1262 17.9759 12.1397C17.8488 12.2264 17.7255 12.3198 17.5927 12.3978C16.5374 13.014 15.4811 13.6264 14.4249 14.2397C13.7875 14.6104 13.1491 14.9801 12.5107 15.3499C12.4713 15.373 12.4241 15.3836 12.3808 15.3999V15.4009Z" fill="#8197ED"/>
<path d="M12.3721 20.9737L12.374 16.4772C13.4909 15.8283 14.6088 15.1803 15.7257 14.5313C16.4276 14.124 17.1295 13.7167 17.8324 13.3085C17.869 13.2873 17.9056 13.268 17.973 13.2314C17.9393 13.2873 17.9239 13.3171 17.9046 13.3431C16.0916 15.8523 14.2785 18.3605 12.4645 20.8688C12.4375 20.9063 12.4038 20.9381 12.373 20.9718L12.3721 20.9737Z" fill="#C0CBF6"/>
</g>
<defs>
<clipPath id="clip0_1_9373">
<rect width="23.9913" height="24" fill="white"/>
</clipPath>
</defs>
</svg>
