<svg width="129" height="25" viewBox="0 0 129 25" fill="none" xmlns="http://www.w3.org/2000/svg">
<path d="M9.26621 3.2395C8.38466 3.2395 7.66748 2.51301 7.66748 1.62001C7.66748 0.726549 8.38466 5.72205e-05 9.26621 5.72205e-05C10.1482 5.72205e-05 10.8654 0.726549 10.8654 1.62001C10.8654 2.51301 10.1482 3.2395 9.26621 3.2395ZM9.26621 0.881428C8.86446 0.881428 8.53801 1.21305 8.53801 1.62001C8.53801 2.02698 8.86446 2.35813 9.26621 2.35813C9.66796 2.35813 9.99486 2.02698 9.99486 1.62001C9.99486 1.21305 9.66796 0.881428 9.26621 0.881428Z" fill="white"/>
<path d="M15.4047 1.56344L15.2684 1.17322L14.8891 1.32764C14.7743 1.37461 12.0415 2.49319 9.00614 4.15174C6.40832 2.54574 4.15165 1.39322 3.89728 1.26438L3.50747 1.06904L3.35596 1.48112C3.33713 1.53275 1.4542 6.67074 0.559333 11.5994C0.557496 11.6073 0.554283 11.6148 0.551528 11.6227C0.547855 11.6334 0.544181 11.6446 0.540967 11.6553C-1.04307 17.7928 0.878435 22.2945 5.95286 24.3316C6.83303 24.6856 7.75957 24.8991 8.7054 24.967C8.92809 24.9898 9.10577 25 9.26647 25C9.40559 25 9.5516 24.9935 9.71138 24.98C13.3914 24.8372 16.6426 22.5131 17.9943 19.0588C19.8345 14.3556 15.5861 2.08343 15.4047 1.56344ZM4.39683 22.6359C1.52399 20.735 0.338027 17.5942 0.961539 13.5282C1.55108 14.5882 2.46431 15.4538 3.48773 15.9207C3.09608 16.9556 2.90508 17.7723 2.90508 18.416C2.90508 19.9611 3.43263 21.4485 4.39683 22.6359ZM1.19111 12.1352L1.23335 12.1459C1.23656 12.1329 1.23932 12.1264 1.24024 12.1255C1.2485 12.1111 1.26503 12.0925 1.29488 12.0859C3.3431 11.6264 5.43127 11.9269 7.03046 12.911C6.76875 14.0296 6.65167 15.1728 6.68151 16.3109C5.95331 15.97 5.09013 15.6365 4.11492 15.3198L4.0938 15.3128C3.02446 14.9263 1.72555 13.8082 1.23427 12.1813C1.23105 12.1715 1.23014 12.1618 1.23014 12.1585L1.23335 12.1464L1.19111 12.1352ZM10.7885 23.4028L10.7894 23.3875C10.9171 22.0471 10.6696 20.7034 10.0736 19.5011L10.0429 19.4378C9.95105 19.2578 9.85142 19.0806 9.74627 18.9109C9.7449 18.9085 9.74352 18.9062 9.74214 18.9039C9.77015 18.8658 9.7977 18.8281 9.82616 18.7909L9.85279 18.756C9.90009 18.6941 9.94738 18.6323 9.99605 18.5741C10.0576 18.5006 10.1205 18.4323 10.1834 18.3639L10.1994 18.3472C10.2174 18.3276 10.2353 18.3076 10.2532 18.2876C10.2789 18.2588 10.3041 18.23 10.3312 18.203C10.4079 18.1248 10.4988 18.043 10.6012 17.9597C10.6127 17.9504 10.626 17.9411 10.6388 17.9314L10.6696 17.9076C10.7545 17.8421 10.8335 17.7839 10.912 17.73C10.9625 17.6956 11.0167 17.6611 11.0714 17.6267L11.0833 17.6193C11.1453 17.5793 11.2086 17.5397 11.2757 17.4997C11.3501 17.4556 11.429 17.4109 11.5094 17.3667C12.2261 16.9709 13.1682 16.5751 14.3097 16.19C14.6646 17.1272 14.845 17.876 14.845 18.416C14.845 21.0438 13.1453 23.3321 10.7031 24.0051C10.7408 23.7982 10.7692 23.5959 10.7885 23.4028ZM7.7435 23.3884L7.74534 23.4056C7.76371 23.5982 7.79125 23.7945 7.82982 24.0051C5.38811 23.3331 3.68837 21.0448 3.68837 18.416C3.68837 17.8751 3.86836 17.1267 4.22327 16.19C5.31511 16.5584 6.22742 16.9384 6.93587 17.3193C7.06811 17.3904 7.19391 17.4621 7.30916 17.5318L7.33854 17.55C7.45195 17.6188 7.55939 17.689 7.65764 17.7574L7.69346 17.7835C7.79676 17.8565 7.88308 17.9221 7.95792 17.9835L7.98547 17.949L7.96848 17.9928C8.05847 18.0676 8.13423 18.136 8.19989 18.203C8.3234 18.3281 8.44874 18.4676 8.57179 18.6188L8.61082 18.6681C8.665 18.7355 8.71642 18.8076 8.7683 18.8792L8.78851 18.9076V18.9081C8.68015 19.082 8.5796 19.2611 8.48915 19.4397L8.46022 19.4992C7.86426 20.7006 7.61632 22.0429 7.7435 23.3884ZM14.4378 15.3598L14.418 15.3198C13.4419 15.6365 12.5773 15.9709 11.8464 16.3133C11.8767 15.1738 11.7587 14.0268 11.4965 12.9036C13.1453 11.8832 15.2376 11.5692 17.2509 12.0418C16.8111 13.5561 15.6793 14.8691 14.4231 15.3179L14.4378 15.3598ZM9.32846 18.1458C9.31652 18.1611 9.30412 18.1755 9.29218 18.1904C9.28759 18.1955 9.283 18.2011 9.27887 18.2062L9.26601 18.1876L9.25132 18.209L9.24903 18.2058C9.20357 18.149 9.15766 18.0937 9.11082 18.0383C9.01945 17.929 8.92533 17.8244 8.83075 17.7253C8.81973 17.7137 8.80917 17.7011 8.79861 17.689C8.78437 17.6728 8.7706 17.6565 8.75637 17.6416C8.73617 17.6216 8.71275 17.6016 8.68933 17.5811C8.6728 17.5672 8.65673 17.5532 8.64204 17.5393C8.58694 17.4877 8.53185 17.436 8.46986 17.3844C8.42808 17.3495 8.38309 17.3151 8.33717 17.2807L8.30365 17.2546C8.24167 17.2072 8.17739 17.1598 8.10944 17.1118C8.05067 17.0709 7.99052 17.03 7.92762 16.9895C7.8436 16.9342 7.75406 16.8798 7.66269 16.8249L7.60392 16.7895C7.56949 16.7691 7.53459 16.7481 7.49832 16.7272L7.48225 16.7174C7.32936 14.1863 7.96159 11.6162 9.26418 9.46927C10.5668 11.6157 11.1985 14.1854 11.0466 16.717C10.8831 16.8091 10.7192 16.9105 10.5452 17.0267L10.4832 17.0681C10.3565 17.1556 10.2444 17.2374 10.143 17.3184L10.1274 17.33C10.1173 17.3379 10.1067 17.3458 10.0971 17.3537C9.96253 17.4639 9.86014 17.5556 9.77474 17.6416C9.64526 17.7732 9.51073 17.9239 9.36427 18.103C9.35233 18.1174 9.34039 18.1314 9.32846 18.1458ZM11.2844 12.1073C10.9579 11.0181 10.4979 9.98275 9.91661 9.02882C10.8845 8.72231 11.5557 7.80327 11.5557 6.774C11.5557 5.76612 10.9102 4.86149 9.97263 4.53778C12.1246 3.39688 14.0319 2.55411 14.8005 2.22482C15.1944 3.41084 16.4502 7.33305 17.1641 11.2134C15.0939 10.7916 13.0108 11.1088 11.2844 12.1073ZM9.22239 8.34419C8.36793 8.34419 7.67234 7.64002 7.67234 6.774C7.67234 5.90797 8.36793 5.20381 9.22239 5.20381C10.0773 5.20381 10.7729 5.90797 10.7729 6.774C10.7729 7.64002 10.0773 8.34419 9.22239 8.34419ZM6.94368 6.27913C6.90741 6.4461 6.8895 6.61214 6.8895 6.774C6.8895 7.83862 7.58969 8.76604 8.60026 9.04928C8.0245 9.99763 7.56811 11.026 7.2435 12.1092C6.0557 11.4297 4.66451 11.0795 3.20811 11.0795C2.65898 11.0795 2.10021 11.1292 1.5396 11.2302C2.23841 9.75624 4.05615 8.09117 6.94368 6.27913ZM8.49971 22.7726C8.49741 22.5833 8.50109 22.4266 8.51119 22.2782C8.51348 22.2405 8.51715 22.2033 8.52083 22.1661L8.52588 22.1159C8.54149 21.9424 8.56123 21.7866 8.58603 21.6396C8.59429 21.5922 8.60347 21.5447 8.61266 21.4973L8.61771 21.4703C8.64663 21.3215 8.68199 21.1685 8.72331 21.0169L8.72928 20.995C8.74397 20.9424 8.7582 20.8903 8.77381 20.8383C8.81514 20.7029 8.86335 20.5638 8.92074 20.4132L8.93865 20.3657C8.95609 20.3192 8.97354 20.2727 8.99282 20.2266C9.05297 20.0829 9.12001 19.9453 9.17786 19.8294L9.20862 19.7671C9.22744 19.7285 9.24581 19.6899 9.26693 19.6518C9.28484 19.6862 9.30183 19.7211 9.31881 19.756C9.33029 19.7801 9.34177 19.8039 9.35371 19.8271C9.41615 19.9518 9.48181 20.0862 9.54012 20.2262C9.55849 20.2699 9.57501 20.3145 9.592 20.3587L9.60991 20.4066C9.67097 20.5671 9.7201 20.708 9.75959 20.8383C9.77612 20.8945 9.79219 20.9517 9.8078 21.0089C9.84958 21.1629 9.88585 21.3178 9.91524 21.4694C9.9258 21.5238 9.93636 21.5782 9.94554 21.6322C9.97125 21.7852 9.991 21.9424 10.0071 22.1122L10.0126 22.1703C10.0158 22.2038 10.019 22.2378 10.0213 22.2717C10.0314 22.4159 10.0355 22.5722 10.0337 22.7624C10.0332 22.7838 10.0337 22.8061 10.0342 22.8275C10.0342 22.8577 10.0346 22.8884 10.0332 22.9187C10.0286 23.0661 10.0162 23.2238 9.99375 23.4303C9.991 23.4517 9.98916 23.4731 9.98732 23.4945C9.98594 23.5182 9.98411 23.5414 9.9809 23.5647C9.95335 23.7679 9.91661 23.9707 9.87162 24.167C9.75913 24.1805 9.64802 24.1907 9.53553 24.1977C9.29218 24.2019 9.04195 24.1963 8.7908 24.1791L8.738 24.1744C8.71321 24.1721 8.68841 24.1693 8.66224 24.1665C8.61633 23.9665 8.5796 23.7661 8.55297 23.5707C8.55021 23.5512 8.54883 23.5317 8.54746 23.5126C8.54562 23.4931 8.54424 23.474 8.54195 23.4549C8.51853 23.2531 8.50476 23.0842 8.49971 22.9242C8.49833 22.8959 8.49879 22.867 8.49925 22.8391C8.49971 22.8168 8.49971 22.7945 8.49971 22.7726ZM5.85873 6.03309C5.7568 6.10006 5.65579 6.16704 5.55616 6.23401L5.44734 6.30796C3.87111 7.37863 2.65255 8.41674 1.82197 9.39578C2.56761 6.22285 3.53686 3.33316 3.94136 2.17691C4.61997 2.53086 6.29629 3.42432 8.21458 4.59266C7.37527 5.07079 6.5828 5.55496 5.85873 6.03309ZM15.6279 18.416C15.6279 17.7728 15.4369 16.9542 15.0438 15.9156C16.0269 15.4514 16.9185 14.5626 17.5103 13.4599C17.7955 15.8393 17.7133 17.6244 17.2661 18.7667C16.6113 20.4406 15.4851 21.8308 13.9988 22.8047C15.0516 21.5931 15.6279 20.0471 15.6279 18.416Z" fill="white"/>
<path d="M28.2969 8.10116H34.565V9.34875H29.6958V12.1125H34.4678V13.3595H29.6958V16.3077H34.565V17.5547H28.2969V8.10116Z" fill="white"/>
<path d="M38.1475 8.10116H39.7426L42.7232 16.0098L45.7161 8.10116H47.3112L43.6041 17.5547H41.8552L38.1475 8.10116Z" fill="white"/>
<path d="M51.2295 8.10116H57.4976V9.34875H52.6284V12.1125H57.4004V13.3595H52.6284V16.3077H57.4976V17.5547H51.2295V8.10116Z" fill="white"/>
<path d="M65.1943 13.9122H63.4453V17.5547H62.0464V8.10116H65.9774C67.7541 8.10116 68.9721 9.26337 68.9721 11.007C68.9721 12.7076 67.839 13.6144 66.6492 13.7708L69.0422 17.5547H67.4188L65.1943 13.9122ZM65.7953 9.34875H63.4453V12.6653H65.7953C66.803 12.6653 67.5307 11.9991 67.5307 11.007C67.5307 10.0143 66.803 9.34875 65.7953 9.34875Z" fill="white"/>
<path d="M73.4912 8.10116H77.8713C79.536 8.10116 80.5012 9.13625 80.5012 10.511C80.5012 11.7012 79.7322 12.4951 78.8784 12.6796C79.8713 12.8348 80.6833 13.8555 80.6833 15.0034C80.6833 16.4916 79.7039 17.5547 77.9833 17.5547H73.4912V8.10116ZM77.6049 12.1125C78.5425 12.1125 79.0598 11.5174 79.0598 10.7372C79.0598 9.95821 78.5425 9.34875 77.6049 9.34875H74.8908V12.1125H77.6049ZM77.6751 16.3077C78.6544 16.3077 79.2419 15.7406 79.2419 14.8196C79.2419 14.04 78.7098 13.3595 77.6751 13.3595H74.8908V16.3077H77.6751Z" fill="white"/>
<path d="M85.2163 8.10116H86.6152V16.3077H90.8551V17.5547H85.2163V8.10116Z" fill="white"/>
<path d="M110.388 9.5185C112.19 9.5185 113.656 11.0029 113.656 12.8282C113.656 14.6528 112.19 16.1372 110.388 16.1372C108.587 16.1372 107.121 14.6528 107.121 12.8282C107.121 11.0029 108.587 9.5185 110.388 9.5185ZM110.388 8.1014C107.811 8.1014 105.722 10.2171 105.722 12.8282C105.722 15.4386 107.811 17.5549 110.388 17.5549C112.965 17.5549 115.054 15.4386 115.054 12.8282C115.054 10.2171 112.965 8.1014 110.388 8.1014Z" fill="white"/>
<path d="M98.2882 9.5185C100.089 9.5185 101.555 11.0029 101.555 12.8282C101.555 14.6528 100.089 16.1372 98.2882 16.1372C96.487 16.1372 95.021 14.6528 95.021 12.8282C95.021 11.0029 96.487 9.5185 98.2882 9.5185ZM98.2882 8.1014C95.7112 8.1014 93.6221 10.2171 93.6221 12.8282C93.6221 15.4386 95.7112 17.5549 98.2882 17.5549C100.865 17.5549 102.954 15.4386 102.954 12.8282C102.954 10.2171 100.865 8.1014 98.2882 8.1014Z" fill="white"/>
<path d="M126.785 10.043L123.763 17.5547H123.175L120.153 10.043V17.5547H118.754V8.10116H120.755L123.469 14.89L126.184 8.10116H128.184V17.5547H126.785V10.043Z" fill="white"/>
</svg>
