<svg width="154" height="30" viewBox="0 0 154 30" fill="none" xmlns="http://www.w3.org/2000/svg">
<path d="M11.1196 3.88745C10.0618 3.88745 9.20117 3.01566 9.20117 1.94406C9.20117 0.871907 10.0618 0.000117302 11.1196 0.000117302C12.1781 0.000117302 13.0387 0.871907 13.0387 1.94406C13.0387 3.01566 12.1781 3.88745 11.1196 3.88745ZM11.1196 1.05776C10.6375 1.05776 10.2458 1.4557 10.2458 1.94406C10.2458 2.43242 10.6375 2.82981 11.1196 2.82981C11.6017 2.82981 11.994 2.43242 11.994 1.94406C11.994 1.4557 11.6017 1.05776 11.1196 1.05776Z" fill="#292928"/>
<path d="M18.4857 1.87613L18.322 1.40787L17.8669 1.59316C17.7292 1.64953 14.4498 2.99182 10.8074 4.98209C7.68999 3.05489 4.98198 1.67186 4.67674 1.51726L4.20897 1.28285L4.02715 1.77735C4.00456 1.8393 1.74504 8.00489 0.671199 13.9193C0.668995 13.9288 0.665139 13.9377 0.661834 13.9472C0.657426 13.9601 0.653017 13.9735 0.64916 13.9863C-1.25168 21.3513 1.05412 26.7534 7.14343 29.198C8.19963 29.6227 9.31149 29.8789 10.4465 29.9604C10.7137 29.9877 10.9269 30 11.1198 30C11.2867 30 11.4619 29.9922 11.6537 29.976C16.0697 29.8047 19.9711 27.0157 21.5931 22.8705C23.8014 17.2268 18.7033 2.50011 18.4857 1.87613ZM5.27619 27.1631C1.82878 24.882 0.405632 21.113 1.15385 16.2339C1.86129 17.5058 2.95717 18.5445 4.18528 19.1049C3.7153 20.3467 3.4861 21.3268 3.4861 22.0992C3.4861 23.9533 4.11916 25.7382 5.27619 27.1631ZM1.42933 14.5623L1.48002 14.5751C1.48388 14.5595 1.48718 14.5517 1.48829 14.5506C1.4982 14.5333 1.51804 14.5109 1.55385 14.5031C4.01172 13.9517 6.51753 14.3123 8.43655 15.4932C8.1225 16.8355 7.982 18.2074 8.01781 19.5731C7.14398 19.164 6.10816 18.7638 4.9379 18.3838L4.91255 18.3754C3.62935 17.9116 2.07066 16.5699 1.48112 14.6175C1.47727 14.6058 1.47616 14.5941 1.47616 14.5902L1.48002 14.5757L1.42933 14.5623ZM12.9462 28.0834L12.9473 28.065C13.1005 26.4565 12.8035 24.8441 12.0884 23.4013L12.0515 23.3254C11.9413 23.1094 11.8217 22.8968 11.6955 22.693C11.6939 22.6903 11.6922 22.6875 11.6906 22.6847C11.7242 22.6389 11.7572 22.5937 11.7914 22.549L11.8234 22.5072C11.8801 22.433 11.9369 22.3587 11.9953 22.289C12.0691 22.2008 12.1446 22.1187 12.2201 22.0367L12.2393 22.0166C12.2608 21.9932 12.2823 21.9692 12.3038 21.9452C12.3347 21.9106 12.365 21.8759 12.3975 21.8436C12.4895 21.7498 12.5986 21.6516 12.7214 21.5517C12.7352 21.5405 12.7512 21.5294 12.7666 21.5176L12.8035 21.4892C12.9055 21.4105 13.0002 21.3407 13.0944 21.276C13.155 21.2347 13.2201 21.1934 13.2856 21.1521L13.2999 21.1431C13.3743 21.0951 13.4504 21.0477 13.5308 20.9997C13.6201 20.9467 13.7148 20.8931 13.8112 20.8401C14.6713 20.3651 15.8019 19.8901 17.1716 19.428C17.5975 20.5526 17.814 21.4512 17.814 22.0992C17.814 25.2526 15.7743 27.9986 12.8437 28.8062C12.8889 28.5578 12.9231 28.315 12.9462 28.0834ZM9.2922 28.0661L9.29441 28.0868C9.31645 28.3178 9.34951 28.5533 9.39579 28.8062C6.46574 27.9997 4.42605 25.2537 4.42605 22.0992C4.42605 21.4501 4.64203 20.5521 5.06793 19.428C6.37813 19.87 7.47291 20.326 8.32305 20.7831C8.48173 20.8685 8.63269 20.9545 8.77099 21.0382L8.80625 21.06C8.94234 21.1426 9.07127 21.2268 9.18917 21.3089L9.23215 21.3401C9.35612 21.4278 9.4597 21.5065 9.54951 21.5801L9.58256 21.5388L9.56218 21.5913C9.67017 21.6812 9.76108 21.7632 9.83987 21.8436C9.98808 21.9937 10.1385 22.1611 10.2862 22.3425L10.333 22.4017C10.398 22.4826 10.4597 22.5691 10.522 22.6551L10.5462 22.6891V22.6897C10.4162 22.8984 10.2955 23.1133 10.187 23.3276L10.1523 23.3991C9.43711 24.8407 9.13959 26.4514 9.2922 28.0661ZM17.3253 18.4318L17.3016 18.3838C16.1303 18.7638 15.0928 19.1651 14.2157 19.5759C14.252 18.2085 14.1104 16.8322 13.7958 15.4843C15.7743 14.2598 18.2851 13.8831 20.7011 14.4501C20.1733 16.2674 18.8151 17.8429 17.3077 18.3815L17.3253 18.4318ZM11.1941 21.7749C11.1798 21.7933 11.1649 21.8106 11.1506 21.8285C11.1451 21.8346 11.1396 21.8413 11.1346 21.8475L11.1192 21.8252L11.1016 21.8508L11.0988 21.8469C11.0443 21.7788 10.9892 21.7124 10.933 21.646C10.8233 21.5148 10.7104 21.3893 10.5969 21.2704C10.5837 21.2564 10.571 21.2414 10.5583 21.2268C10.5412 21.2073 10.5247 21.1878 10.5076 21.1699C10.4834 21.1459 10.4553 21.1219 10.4272 21.0974C10.4074 21.0806 10.3881 21.0639 10.3705 21.0471C10.3043 20.9852 10.2382 20.9232 10.1638 20.8613C10.1137 20.8194 10.0597 20.7781 10.0046 20.7368L9.96439 20.7056C9.89001 20.6486 9.81287 20.5917 9.73133 20.5342C9.6608 20.4851 9.58863 20.436 9.51314 20.3874C9.41232 20.321 9.30488 20.2557 9.19523 20.1899L9.12471 20.1474C9.08339 20.1229 9.04151 20.0978 8.99799 20.0726L8.9787 20.0609C8.79523 17.0236 9.55391 13.9394 11.117 11.3631C12.6801 13.9389 13.4382 17.0225 13.2559 20.0604C13.0597 20.1709 12.863 20.2926 12.6542 20.4321L12.5798 20.4818C12.4278 20.5867 12.2933 20.6849 12.1716 20.782L12.1528 20.796C12.1407 20.8055 12.128 20.815 12.1165 20.8244C11.955 20.9567 11.8322 21.0667 11.7297 21.1699C11.5743 21.3279 11.4129 21.5087 11.2371 21.7236C11.2228 21.7409 11.2085 21.7576 11.1941 21.7749ZM13.5413 14.5288C13.1495 13.2217 12.5975 11.9793 11.8999 10.8346C13.0614 10.4668 13.8669 9.36392 13.8669 8.12879C13.8669 6.91934 13.0922 5.83379 11.9672 5.44534C14.5495 4.07626 16.8383 3.06494 17.7606 2.66978C18.2333 4.093 19.7402 8.79966 20.597 13.4561C18.1127 12.9499 15.6129 13.3305 13.5413 14.5288ZM11.0669 10.013C10.0415 10.013 9.2068 9.16802 9.2068 8.12879C9.2068 7.08957 10.0415 6.24457 11.0669 6.24457C12.0928 6.24457 12.9275 7.08957 12.9275 8.12879C12.9275 9.16802 12.0928 10.013 11.0669 10.013ZM8.33242 7.53495C8.28889 7.73532 8.2674 7.93457 8.2674 8.12879C8.2674 9.40634 9.10763 10.5192 10.3203 10.8591C9.6294 11.9972 9.08173 13.2312 8.6922 14.531C7.26684 13.7156 5.59741 13.2953 3.84974 13.2953C3.19078 13.2953 2.52025 13.3551 1.84752 13.4762C2.68609 11.7075 4.86738 9.7094 8.33242 7.53495ZM10.1996 27.3271C10.1969 27.1 10.2013 26.9119 10.2134 26.7339C10.2162 26.6886 10.2206 26.644 10.225 26.5994L10.2311 26.5391C10.2498 26.3309 10.2735 26.1439 10.3032 25.9676C10.3131 25.9106 10.3242 25.8537 10.3352 25.7968L10.3412 25.7644C10.376 25.5858 10.4184 25.4022 10.468 25.2202L10.4751 25.194C10.4928 25.1309 10.5098 25.0684 10.5286 25.0059C10.5782 24.8435 10.636 24.6766 10.7049 24.4958L10.7264 24.4389C10.7473 24.383 10.7682 24.3272 10.7914 24.272C10.8636 24.0995 10.944 23.9343 11.0134 23.7953L11.0503 23.7205C11.0729 23.6742 11.095 23.6279 11.1203 23.5821C11.1418 23.6234 11.1622 23.6653 11.1826 23.7072C11.1964 23.7362 11.2101 23.7646 11.2245 23.7925C11.2994 23.9421 11.3782 24.1034 11.4481 24.2714C11.4702 24.3239 11.49 24.3775 11.5104 24.4305L11.5319 24.488C11.6052 24.6805 11.6641 24.8496 11.7115 25.0059C11.7313 25.0734 11.7506 25.1421 11.7694 25.2107C11.8195 25.3955 11.863 25.5813 11.8983 25.7633C11.911 25.8286 11.9236 25.8939 11.9346 25.9586C11.9655 26.1422 11.9892 26.3309 12.0085 26.5346L12.0151 26.6044C12.0189 26.6446 12.0228 26.6853 12.0256 26.726C12.0377 26.8991 12.0426 27.0866 12.0404 27.3149C12.0399 27.3405 12.0404 27.3673 12.041 27.393C12.041 27.4293 12.0415 27.4661 12.0399 27.5024C12.0344 27.6793 12.0195 27.8685 11.9925 28.1163C11.9892 28.142 11.987 28.1677 11.9848 28.1934C11.9831 28.2218 11.9809 28.2497 11.9771 28.2776C11.944 28.5215 11.8999 28.7649 11.8459 29.0004C11.711 29.0166 11.5776 29.0289 11.4426 29.0372C11.1506 29.0423 10.8503 29.0356 10.549 29.0149L10.4856 29.0093C10.4558 29.0065 10.4261 29.0032 10.3947 28.9998C10.3396 28.7598 10.2955 28.5193 10.2636 28.2849C10.2603 28.2614 10.2586 28.238 10.2569 28.2151C10.2547 28.1917 10.2531 28.1688 10.2503 28.1459C10.2222 27.9037 10.2057 27.7011 10.1996 27.5091C10.198 27.475 10.1985 27.4404 10.1991 27.407C10.1996 27.3802 10.1996 27.3534 10.1996 27.3271ZM7.03048 7.2397C6.90816 7.32007 6.78695 7.40044 6.66739 7.48081L6.53681 7.56956C4.64534 8.85436 3.18306 10.1001 2.18636 11.2749C3.08114 7.46742 4.24423 3.99979 4.72963 2.6123C5.54397 3.03703 7.55555 4.10919 9.8575 5.51119C8.85033 6.08495 7.89936 6.66595 7.03048 7.2397ZM18.7534 22.0992C18.7534 21.3273 18.5242 20.345 18.0526 19.0987C19.2322 18.5417 20.3022 17.4751 21.0124 16.1518C21.3546 19.0072 21.2559 21.1493 20.7193 22.52C19.9336 24.5287 18.5821 26.1969 16.7986 27.3657C18.062 25.9117 18.7534 24.0565 18.7534 22.0992Z" fill="#292928"/>
<path d="M33.9561 9.72144H41.4778V11.2185H35.6348V14.5351H41.3611V16.0314H35.6348V19.5693H41.4778V21.0657H33.9561V9.72144Z" fill="#292928"/>
<path d="M45.7773 9.72144H47.6915L51.2682 19.2119L54.8597 9.72144H56.7739L52.3254 21.0657H50.2266L45.7773 9.72144Z" fill="#292928"/>
<path d="M61.4756 9.72144H68.9973V11.2185H63.1543V14.5351H68.8807V16.0314H63.1543V19.5693H68.9973V21.0657H61.4756V9.72144Z" fill="#292928"/>
<path d="M78.2326 16.6947H76.1338V21.0657H74.4551V9.72144H79.1723C81.3043 9.72144 82.766 11.1161 82.766 13.2085C82.766 15.2492 81.4062 16.3373 79.9784 16.525L82.8501 21.0657H80.902L78.2326 16.6947ZM78.9538 11.2185H76.1338V15.1984H78.9538C80.163 15.1984 81.0363 14.399 81.0363 13.2085C81.0363 12.0172 80.163 11.2185 78.9538 11.2185Z" fill="#292928"/>
<path d="M88.1885 9.72144H93.4446C95.4422 9.72144 96.6005 10.9635 96.6005 12.6132C96.6005 14.0415 95.6777 14.9942 94.6531 15.2156C95.8446 15.4018 96.819 16.6267 96.819 18.0042C96.819 19.7899 95.6438 21.0657 93.579 21.0657H88.1885V9.72144ZM93.125 14.5351C94.25 14.5351 94.8708 13.8209 94.8708 12.8847C94.8708 11.9499 94.25 11.2185 93.125 11.2185H89.8679V14.5351H93.125ZM93.2091 19.5693C94.3844 19.5693 95.0894 18.8888 95.0894 17.7835C95.0894 16.848 94.4508 16.0314 93.2091 16.0314H89.8679V19.5693H93.2091Z" fill="#292928"/>
<path d="M102.26 9.72144H103.938V19.5693H109.026V21.0657H102.26V9.72144Z" fill="#292928"/>
<path d="M132.466 11.4222C134.627 11.4222 136.386 13.2035 136.386 15.3938C136.386 17.5834 134.627 19.3647 132.466 19.3647C130.304 19.3647 128.545 17.5834 128.545 15.3938C128.545 13.2035 130.304 11.4222 132.466 11.4222ZM132.466 9.72168C129.373 9.72168 126.866 12.2605 126.866 15.3938C126.866 18.5264 129.373 21.0659 132.466 21.0659C135.558 21.0659 138.065 18.5264 138.065 15.3938C138.065 12.2605 135.558 9.72168 132.466 9.72168Z" fill="#292928"/>
<path d="M117.946 11.4222C120.108 11.4222 121.867 13.2035 121.867 15.3938C121.867 17.5834 120.108 19.3647 117.946 19.3647C115.785 19.3647 114.025 17.5834 114.025 15.3938C114.025 13.2035 115.785 11.4222 117.946 11.4222ZM117.946 9.72168C114.854 9.72168 112.347 12.2605 112.347 15.3938C112.347 18.5264 114.854 21.0659 117.946 21.0659C121.038 21.0659 123.545 18.5264 123.545 15.3938C123.545 12.2605 121.038 9.72168 117.946 9.72168Z" fill="#292928"/>
<path d="M152.142 12.0518L148.515 21.0659H147.81L144.184 12.0518V21.0659H142.505V9.72168H144.906L148.163 17.8683L151.42 9.72168H153.82V21.0659H152.142V12.0518Z" fill="#292928"/>
</svg>
