<svg width="20" height="20" viewBox="0 0 20 20" fill="none" xmlns="http://www.w3.org/2000/svg">
<path d="M18 9.5C18 6.89171 18 5.58757 17.3259 4.65074C17.034 4.24518 16.659 3.89696 16.2223 3.62597C15.2134 3 13.8089 3 11 3H9C6.19108 3 4.78661 3 3.77772 3.62597C3.34096 3.89696 2.96596 4.24518 2.67412 4.65074C2 5.58757 2 6.89171 2 9.5C2 12.1083 2 13.4124 2.67412 14.3493C2.96596 14.7548 3.34096 15.103 3.77772 15.374C4.78661 16 6.19108 16 9 16H11C13.8089 16 15.2134 16 16.2223 15.374C16.659 15.103 17.034 14.7548 17.3259 14.3493C18 13.4124 18 12.1083 18 9.5Z" stroke="#292928" stroke-width="1.5"/>
<path d="M2.5 6L10 10.5L17 6" stroke="#292928" stroke-width="1.5" stroke-linecap="round" stroke-linejoin="round"/>
</svg>
