<svg width="24" height="24" viewBox="0 0 24 24" fill="none" xmlns="http://www.w3.org/2000/svg">
<g clip-path="url(#clip0_1_9380)">
<ellipse cx="12" cy="12.9161" rx="11" ry="10" fill="white"/>
<path d="M11.4959 24C11.4283 23.9933 11.3617 23.9836 11.2942 23.9798C10.0105 23.9055 8.76832 23.6391 7.57247 23.1661C6.31484 22.6681 5.17015 21.9819 4.14996 21.09C3.0709 20.1471 2.17522 19.0564 1.49863 17.7892C0.954271 16.7699 0.572062 15.6947 0.352968 14.5597C0.183098 13.6814 0.116501 12.7953 0.157038 11.9026C0.232321 10.2386 0.653137 8.6673 1.41659 7.18673C1.6492 6.73599 1.90593 6.29973 2.19838 5.88471C2.20803 5.90787 2.21961 5.93007 2.22637 5.95323C2.39528 6.58832 2.55742 7.22533 2.73502 7.85849C2.85566 8.28895 2.99851 8.71266 3.1346 9.13831C3.15197 9.19236 3.14811 9.23675 3.12398 9.28887C2.95025 9.66819 2.76976 10.0465 2.61147 10.4326C2.32578 11.1275 2.10283 11.8447 1.94937 12.5801C1.8818 12.9015 1.83065 13.2258 1.77949 13.5501C1.74957 13.7383 1.73027 13.9285 1.71097 14.1186C1.69842 14.2479 1.69456 14.3782 1.68684 14.5076C1.68394 14.5664 1.68105 14.6253 1.67815 14.6852C1.65981 15.0645 1.67236 15.4399 1.78625 15.8077C1.96191 16.379 2.25339 16.8886 2.60665 17.3645C3.12398 18.0623 3.74266 18.6617 4.41152 19.2109C5.22709 19.8807 6.1054 20.4579 7.03872 20.9501C8.16798 21.5446 9.34356 22.0156 10.5973 22.2743C10.9409 22.3448 11.2874 22.3959 11.6368 22.421C12.0489 22.45 12.4601 22.4268 12.8713 22.3776C13.2873 22.3284 13.6984 22.2483 14.1038 22.1459C15.0641 21.9027 15.983 21.5485 16.868 21.1045C17.9577 20.5582 18.976 19.9039 19.8823 19.0854C20.5 18.5275 21.0521 17.9117 21.4893 17.1994C21.6486 16.9398 21.7991 16.6753 21.9101 16.3897C22.1398 15.8028 22.2865 15.2015 22.2334 14.5655C22.2296 14.4796 22.2267 14.3927 22.2209 14.3068C22.2151 14.219 22.2055 14.1311 22.1977 14.0433C22.1891 13.9043 22.1881 13.7634 22.1697 13.6254C22.1244 13.2818 22.0752 12.9392 22.0192 12.5975C21.9931 12.4373 21.9497 12.2799 21.914 12.1207C21.9101 12.1139 21.9063 12.1072 21.9024 12.1004C21.9034 12.0908 21.9082 12.0802 21.9063 12.0705C21.8898 12 21.8744 11.9286 21.8541 11.8582C21.8039 11.6893 21.7518 11.5204 21.7007 11.3514C21.6727 11.2713 21.6447 11.1893 21.6177 11.1082C21.6138 11.0966 21.609 11.0851 21.6051 11.0725C21.5964 11.0484 21.5887 11.0233 21.58 10.9982C21.5212 10.8428 21.4661 10.6864 21.4015 10.533C21.332 10.3679 21.2528 10.2068 21.1785 10.0436C21.166 10.0176 21.1544 9.99055 21.1418 9.96449C21.138 9.95677 21.1341 9.94905 21.1293 9.94036C21.1254 9.93264 21.1216 9.92492 21.1167 9.91624C21.1129 9.90658 21.1081 9.89693 21.1042 9.88632C21.1003 9.87859 21.0965 9.87087 21.0916 9.86219C21.0878 9.85446 21.0839 9.84674 21.0791 9.83806C21.0752 9.83034 21.0714 9.82261 21.0666 9.81393C21.0627 9.80621 21.0588 9.79848 21.054 9.7898C21.0501 9.78208 21.0463 9.77436 21.0415 9.76567C21.0376 9.75795 21.0337 9.75023 21.0289 9.74154C21.0251 9.73382 21.0212 9.7261 21.0164 9.71741C21.0125 9.70969 21.0086 9.701 21.0038 9.69328C21 9.68749 20.9961 9.68073 20.9913 9.67494L20.9787 9.65081C20.9749 9.64309 20.971 9.63537 20.9662 9.62668C20.9623 9.61896 20.9585 9.61124 20.9536 9.60255C20.943 9.58229 20.9324 9.56202 20.9218 9.54078C20.8571 9.42496 20.7924 9.30818 20.7278 9.19236C20.7123 9.15954 20.6959 9.12576 20.6805 9.09294C20.6805 9.06978 20.6805 9.04661 20.6805 9.02249C20.6998 8.97133 20.7191 8.91921 20.7384 8.86806C20.7548 8.81304 20.7712 8.75706 20.7876 8.70205C20.7992 8.66344 20.8117 8.6229 20.8233 8.58333C20.8513 8.49647 20.8793 8.4096 20.9063 8.32273C20.9112 8.31212 20.917 8.30247 20.9208 8.29185C21.1631 7.50234 21.3812 6.70703 21.5723 5.90401C21.5926 5.81907 21.6186 5.73607 21.6418 5.6521C22.4188 6.71572 22.9959 7.87875 23.3733 9.14024C23.5548 9.74733 23.6773 10.3679 23.7536 10.9982C23.8424 11.7279 23.8617 12.4595 23.8067 13.192C23.6368 15.4795 22.8598 17.5421 21.4594 19.3576C20.0049 21.2425 18.1411 22.5716 15.8894 23.3495C15.1809 23.5937 14.4561 23.7703 13.7139 23.8678C13.3037 23.9219 12.8886 23.9441 12.4765 23.9817C12.462 23.9827 12.4476 23.9885 12.4331 23.9914H11.4853L11.4959 24Z" fill="#EF0500"/>
<path d="M21.0132 9.701C21.0171 9.70872 21.021 9.7174 21.0258 9.72512C21.0296 9.73285 21.0335 9.74153 21.0383 9.74925C21.0422 9.75698 21.0461 9.76566 21.0509 9.77338C21.0547 9.7811 21.0586 9.78979 21.0634 9.79751C21.0673 9.80523 21.0711 9.81392 21.076 9.82164C21.0798 9.82936 21.0837 9.83708 21.0885 9.84577C21.0924 9.85349 21.0962 9.86121 21.1011 9.8699C21.1049 9.87762 21.1088 9.88631 21.1136 9.89403C21.1175 9.90368 21.1223 9.91333 21.1262 9.92298C21.13 9.93071 21.1339 9.93939 21.1387 9.94711C21.1426 9.95484 21.1464 9.96352 21.1513 9.97124C21.1638 9.9973 21.1754 10.0234 21.1879 10.0504C21.2622 10.2135 21.3414 10.3747 21.4109 10.5397C21.4756 10.6922 21.5306 10.8496 21.5894 11.0049C21.5981 11.03 21.6059 11.0551 21.6145 11.0802C21.6184 11.0918 21.6232 11.1034 21.6271 11.1159C21.6551 11.196 21.6831 11.2771 21.7101 11.3592C21.713 11.3804 21.714 11.4016 21.7197 11.4219C21.739 11.4914 21.7612 11.5609 21.7815 11.6313C21.8259 11.7896 21.8693 11.9489 21.9128 12.1072C21.9166 12.1139 21.9205 12.1207 21.9244 12.1274C21.9244 12.1438 21.9205 12.1612 21.9244 12.1767C22.0672 12.7934 22.156 13.4179 22.1985 14.0501C22.2091 14.2228 22.2197 14.3966 22.2303 14.5693C22.211 14.5693 22.1907 14.5713 22.1714 14.5693C21.7719 14.5298 21.3713 14.5298 20.9708 14.5568C20.4003 14.5964 19.8396 14.6948 19.2914 14.855C18.275 15.1523 17.3562 15.6368 16.5339 16.3028C16.5136 16.3192 16.4924 16.3356 16.4692 16.353C16.2704 15.6301 15.947 14.9786 15.477 14.4043C14.979 13.7953 14.3622 13.3542 13.6123 13.1071C12.9116 12.8764 12.1935 12.8359 11.4657 12.9324C10.6878 13.0357 9.97937 13.3185 9.34332 13.775C8.43413 14.4274 7.78071 15.2874 7.32418 16.3028C7.31742 16.3182 7.3097 16.3327 7.29716 16.3588C7.27689 16.3337 7.26241 16.3144 7.24697 16.298C6.80781 15.8366 6.30882 15.4544 5.74516 15.1571C4.83693 14.6784 3.86403 14.4632 2.84288 14.441C2.45971 14.4332 2.0775 14.4583 1.69722 14.5124C1.70494 14.3831 1.7088 14.2528 1.72135 14.1234C1.74065 13.9333 1.75996 13.7431 1.78988 13.5549C1.842 13.2306 1.89315 12.9054 1.95975 12.5849C2.11417 11.8485 2.33616 11.1323 2.62186 10.4374C2.78014 10.0514 2.96063 9.67397 3.13436 9.29369C3.15849 9.24061 3.16235 9.19717 3.14498 9.14313C3.00986 8.71748 2.86701 8.29281 2.7454 7.8633C2.56781 7.23112 2.40566 6.59314 2.23675 5.95805C2.22999 5.93392 2.21841 5.91172 2.20876 5.88952C2.202 5.84127 2.19911 5.79301 2.18753 5.74571C2.04179 5.11932 1.91824 4.48809 1.82752 3.85204C1.74065 3.24591 1.68178 2.63689 1.69529 2.02304C1.70591 1.5723 1.74837 1.12446 1.90666 0.696891C1.99353 0.460424 2.11707 0.247121 2.30624 0.0753198C2.34099 0.043469 2.3767 0.0270611 2.42689 0.0280263C2.81392 0.0357477 3.18552 0.124544 3.54842 0.248086C4.2752 0.49517 4.93248 0.872553 5.53764 1.33777C5.85326 1.58003 6.14956 1.84931 6.45456 2.10604C6.46807 2.11763 6.48158 2.12921 6.4951 2.14079C6.64663 2.29329 6.80009 2.44482 6.94969 2.59828C7.40139 3.06253 7.81449 3.56056 8.19959 4.08079C8.22565 4.11554 8.24592 4.11747 8.2826 4.10492C8.48625 4.03736 8.68894 3.96786 8.89355 3.90706C9.24584 3.80378 9.60295 3.71885 9.96682 3.66673C10.2139 3.63102 10.461 3.59917 10.7081 3.57214C10.9079 3.55091 11.1077 3.53161 11.3084 3.52678C11.6202 3.51809 11.9319 3.52388 12.2437 3.52195C12.6519 3.51906 13.0592 3.5374 13.4627 3.59531C13.731 3.63391 13.9993 3.6677 14.2647 3.71885C14.7744 3.81537 15.2753 3.94856 15.7666 4.1165C15.809 4.13098 15.8303 4.12229 15.8582 4.08658C16.1121 3.75456 16.3582 3.41579 16.6275 3.09728C16.9064 2.76815 17.2105 2.4593 17.5029 2.14176C17.6602 1.99795 17.8147 1.85027 17.9749 1.71032C18.5617 1.19782 19.1929 0.751906 19.9062 0.428573C20.3231 0.239399 20.7546 0.0994491 21.2111 0.0444342C21.242 0.0405735 21.2748 0.0444342 21.3057 0.0367128C21.4447 0.00196659 21.5402 0.059877 21.6271 0.164116C21.8143 0.387071 21.9234 0.646702 21.9948 0.924672C22.0672 1.2065 22.1 1.49412 22.1145 1.78464C22.1454 2.41007 22.0904 3.03068 22.0093 3.65032C21.9215 4.32112 21.7912 4.98516 21.6435 5.64437C21.6377 5.66464 21.6309 5.68587 21.6261 5.70614C21.4466 6.48986 21.2381 7.26586 21.0084 8.03704C20.9785 8.13645 20.9544 8.23683 20.9283 8.3372C20.9003 8.42407 20.8723 8.5119 20.8453 8.59877C20.8337 8.63834 20.8212 8.67791 20.8096 8.71845C20.7893 8.77346 20.769 8.82944 20.7488 8.88446C20.7333 8.93561 20.7179 8.98773 20.7024 9.03889C20.686 9.06302 20.6658 9.08618 20.7024 9.11031C20.7179 9.14312 20.7343 9.17691 20.7497 9.20972C20.8144 9.32554 20.8791 9.44233 20.9437 9.55815C20.9544 9.57842 20.965 9.59965 20.9756 9.61992C20.9795 9.62764 20.9833 9.63633 20.9881 9.64405C20.992 9.65177 20.9959 9.66046 21.0007 9.66818L21.0132 9.69231C21.0171 9.6981 21.021 9.70389 21.0258 9.71065L21.0132 9.701ZM2.82358 2.39367C2.8062 2.59732 2.78497 2.79518 2.77435 2.994C2.76856 3.10983 2.77628 3.22661 2.78497 3.34243C2.8062 3.60785 2.82261 3.87521 2.85736 4.1387C2.89403 4.41184 2.93747 4.68595 3.0002 4.95427C3.11409 5.43782 3.23571 5.91945 3.37276 6.39624C3.47893 6.76494 3.61116 7.12591 3.73373 7.48978C3.76945 7.59499 3.81191 7.69729 3.85535 7.81119C4.26265 7.10854 4.75585 6.486 5.33399 5.9291C5.91117 5.37219 6.54142 4.88671 7.25276 4.5045C7.15141 4.39254 7.05586 4.28251 6.95548 4.17827C6.80588 4.02384 6.65531 3.87135 6.49992 3.72271C6.27793 3.51037 6.05401 3.29996 5.8243 3.09535C5.66312 2.95154 5.49614 2.81352 5.32531 2.68225C4.98074 2.41683 4.62266 2.17071 4.23852 1.96416C3.91326 1.78947 3.58124 1.63407 3.2164 1.55879C3.18166 1.55107 3.16139 1.55493 3.14401 1.58678C3.08417 1.69778 3.01468 1.80395 2.96449 1.9188C2.90079 2.06358 2.85639 2.21704 2.83612 2.38208H3.10348C3.10348 2.38208 3.10348 2.38981 3.10348 2.39367H2.82358V2.39367ZM16.7298 4.50257C18.1254 5.31332 19.2122 6.41361 20.0104 7.80636C20.0172 7.79381 20.022 7.78802 20.0249 7.7803C20.1089 7.53804 20.1938 7.29771 20.2749 7.05449C20.465 6.48504 20.6262 5.90786 20.7604 5.32393C20.8086 5.11546 20.8569 4.90698 20.8916 4.69657C20.9389 4.40702 20.9785 4.11554 21.0113 3.82309C21.0354 3.60496 21.0518 3.3849 21.0567 3.16581C21.0605 2.99304 21.0461 2.82027 21.0345 2.64751C21.0287 2.5645 21.0113 2.4815 20.9978 2.39367H20.7401C20.8086 2.38112 20.8771 2.38015 20.9457 2.38208C20.9795 2.38208 20.9939 2.3705 20.9872 2.33672C20.9293 2.06744 20.8492 1.80781 20.6831 1.58292C20.6725 1.56844 20.6436 1.55493 20.6262 1.55879C20.55 1.5752 20.4727 1.59354 20.3984 1.61767C19.9593 1.76341 19.5568 1.9854 19.1794 2.24889C18.8899 2.45061 18.6128 2.6726 18.3387 2.89556C18.1467 3.05191 17.9633 3.21889 17.7847 3.39069C17.5859 3.58179 17.3958 3.78255 17.2037 3.98138C17.0917 4.0972 16.9827 4.21688 16.8736 4.3356C16.8253 4.38868 16.78 4.44563 16.7308 4.50257H16.7298ZM9.22654 13.0723C9.26225 13.0723 9.29892 13.0772 9.33271 13.0714C9.43694 13.053 9.54215 13.0366 9.64253 13.0067C9.71685 12.9835 9.72939 12.9517 9.71684 12.8745C9.70912 12.8243 9.69368 12.7751 9.67341 12.7287C9.56917 12.4807 9.39641 12.2857 9.18889 12.1197C8.91479 11.8987 8.61172 11.7221 8.31059 11.5425C7.80773 11.2443 7.30005 10.9557 6.75859 10.7337C6.46904 10.615 6.17562 10.5088 5.85326 10.5233C5.80017 10.5253 5.77025 10.5436 5.74709 10.589C5.66891 10.7405 5.63223 10.9036 5.6303 11.0715C5.62837 11.2945 5.63513 11.5175 5.64285 11.7404C5.64285 11.7684 5.66215 11.8002 5.68146 11.8215C5.95749 12.1236 6.30592 12.3156 6.67365 12.4797C7.12439 12.6815 7.59539 12.8224 8.07702 12.9295C8.45633 13.0135 8.83854 13.0752 9.22847 13.0743L9.22654 13.0723ZM18.4401 11.3003C18.4401 11.3003 18.4324 11.3003 18.4285 11.3003C18.4285 11.1835 18.4362 11.0667 18.4266 10.9509C18.416 10.8158 18.3841 10.6835 18.3204 10.5619C18.2953 10.5156 18.2625 10.4818 18.2046 10.4876C18.0907 10.4973 17.9758 10.4973 17.8648 10.5204C17.5376 10.589 17.2355 10.727 16.9373 10.8727C16.4151 11.1275 15.9219 11.4344 15.4287 11.7394C15.171 11.8987 14.9249 12.0715 14.7203 12.2973C14.5746 12.4585 14.451 12.6313 14.4066 12.8504C14.3921 12.9227 14.4066 12.9642 14.4694 12.999C14.5012 13.0164 14.5369 13.0308 14.5736 13.0386C14.7946 13.0839 15.0195 13.0743 15.2396 13.0463C15.5368 13.0086 15.8351 12.9604 16.1275 12.8938C16.6844 12.7674 17.2211 12.5811 17.7249 12.307C17.9623 12.1786 18.1833 12.028 18.36 11.8205C18.3889 11.7867 18.415 11.7404 18.4188 11.697C18.4324 11.5657 18.4343 11.4335 18.441 11.3013L18.4401 11.3003ZM7.86178 9.76277C8.04227 9.75311 8.24689 9.73671 8.4515 9.73188C8.60593 9.72899 8.71403 9.66239 8.79124 9.53402C8.87618 9.39117 8.92058 9.23482 8.95918 9.07556C9.01516 8.84296 8.96594 8.63351 8.82213 8.4453C8.69859 8.28316 8.5374 8.16637 8.35885 8.07564C8.10501 7.94631 7.84537 7.84979 7.5481 7.90288C7.052 7.99167 6.61864 8.29281 6.52309 8.88639C6.49027 9.08908 6.50957 9.28114 6.64856 9.44426C6.78079 9.59869 6.95935 9.67687 7.15334 9.70389C7.3792 9.73478 7.60891 9.74346 7.86178 9.76277V9.76277ZM16.6178 9.75987C16.7501 9.75215 16.9508 9.73285 17.1516 9.73285C17.3379 9.73285 17.4614 9.64598 17.5328 9.48576C17.5888 9.35836 17.6332 9.22516 17.6708 9.09101C17.7365 8.85261 17.6882 8.63351 17.5357 8.43951C17.3794 8.23972 17.1709 8.11039 16.9421 8.01098C16.7655 7.93473 16.5879 7.87296 16.3881 7.88936C15.8853 7.93087 15.3216 8.21656 15.2309 8.94526C15.1971 9.21551 15.3042 9.44812 15.5397 9.58614C15.6623 9.65756 15.7955 9.70293 15.9355 9.71547C16.1391 9.73478 16.3447 9.7425 16.6178 9.75891V9.75987Z" fill="#FEA309"/>
<path d="M17.4941 2.13594C17.2017 2.45348 16.8977 2.76233 16.6187 3.09146C16.3485 3.40996 16.1033 3.74874 15.8495 4.08076C15.8225 4.11647 15.8012 4.12516 15.7578 4.11068C15.2665 3.94274 14.7656 3.80955 14.256 3.71303C13.9906 3.66284 13.7213 3.62906 13.4539 3.58949C13.0495 3.53158 12.6422 3.51324 12.2349 3.51613C11.9232 3.51806 11.6114 3.51324 11.2996 3.52096C11.0989 3.52579 10.8991 3.54509 10.6993 3.56632C10.4513 3.59335 10.2042 3.6252 9.95806 3.66091C9.59419 3.71303 9.23707 3.79796 8.88478 3.90124C8.6792 3.96204 8.47652 4.03154 8.27383 4.0991C8.23715 4.11165 8.21688 4.10972 8.19082 4.07497C7.80572 3.55474 7.39263 3.05671 6.94093 2.59246C6.79132 2.43804 6.63786 2.28747 6.48633 2.13497C7.12913 1.80392 7.79607 1.5356 8.4881 1.32616C9.15117 1.1254 9.82776 0.982554 10.5159 0.897619C11.2726 0.803997 12.0312 0.780833 12.7908 0.831987C14.2 0.926574 15.5532 1.2557 16.8465 1.82322C17.054 1.91395 17.2567 2.01625 17.4603 2.11277C17.4729 2.11856 17.4825 2.12725 17.4941 2.13497V2.13594Z" fill="#EF0500"/>
<path d="M20.9189 8.33236C20.946 8.23198 20.9701 8.1316 20.9991 8.03219C21.2278 7.26102 21.4372 6.48502 21.6168 5.7013C21.6216 5.68006 21.6283 5.6598 21.6341 5.63953C21.6409 5.64725 21.6477 5.654 21.6544 5.66173C21.6312 5.7457 21.6042 5.8287 21.5849 5.91364C21.3948 6.71666 21.1766 7.51293 20.9334 8.30147C20.9305 8.31209 20.9238 8.32174 20.9189 8.33236V8.33236Z" fill="#FBC2A4"/>
<path d="M22.1879 14.0442C22.1455 13.413 22.0567 12.7885 21.9138 12.1708C21.91 12.1554 21.9138 12.138 21.9138 12.1216C21.9495 12.2808 21.993 12.4382 22.019 12.5984C22.074 12.94 22.1242 13.2827 22.1696 13.6263C22.1879 13.7643 22.1889 13.9043 22.1976 14.0442C22.1947 14.0442 22.1918 14.0442 22.1879 14.0442V14.0442Z" fill="#FCC4A5"/>
<path d="M21.9029 12.1013C21.8594 11.943 21.816 11.7837 21.7716 11.6255C21.7523 11.556 21.7301 11.4865 21.7098 11.416C21.7041 11.3957 21.7031 11.3735 21.7002 11.3533C21.7513 11.5222 21.8035 11.6901 21.8537 11.86C21.8739 11.9295 21.8894 12.0009 21.9058 12.0723C21.9077 12.082 21.9038 12.0926 21.9019 12.1022L21.9029 12.1013Z" fill="#FCC3A4"/>
<path d="M22.1885 14.0442C22.1885 14.0442 22.1943 14.0442 22.1981 14.0442C22.2059 14.132 22.2145 14.2199 22.2213 14.3077C22.2271 14.3936 22.23 14.4804 22.2338 14.5663C22.23 14.5663 22.2252 14.5654 22.2213 14.5644C22.2107 14.3917 22.2001 14.2179 22.1894 14.0452L22.1885 14.0442Z" fill="#FBBD9D"/>
<path d="M20.8359 8.59298C20.8639 8.50612 20.8919 8.41829 20.9189 8.33142C20.891 8.41829 20.863 8.50612 20.8359 8.59298Z" fill="#FBC2A4"/>
<path d="M21.7021 11.3543C21.6742 11.2732 21.6462 11.1921 21.6191 11.1101C21.6471 11.1912 21.6751 11.2723 21.7021 11.3543Z" fill="#FCC3A4"/>
<path d="M20.7402 8.8767C20.7605 8.82169 20.7808 8.76571 20.801 8.71069C20.7846 8.76571 20.7682 8.82169 20.7518 8.8767C20.748 8.8767 20.7441 8.8767 20.7402 8.8767Z" fill="#FCC4A5"/>
<path d="M20.7407 8.87671C20.7407 8.87671 20.7484 8.87671 20.7522 8.87671C20.7329 8.92786 20.7136 8.97998 20.6943 9.03114C20.7098 8.97998 20.7252 8.92786 20.7407 8.87671Z" fill="#FBBBA2"/>
<path d="M20.8008 8.71148C20.8124 8.67191 20.8249 8.63233 20.8365 8.5918C20.8249 8.63137 20.8124 8.67094 20.8008 8.71148Z" fill="#FCC4A5"/>
<path d="M20.7416 9.20098C20.7262 9.16816 20.7098 9.13438 20.6943 9.10156C20.7098 9.13438 20.7262 9.16816 20.7416 9.20098Z" fill="#FBBBA2"/>
<path d="M21.1802 10.0464C21.1677 10.0204 21.1561 9.99334 21.1436 9.96729C21.1561 9.99334 21.1677 10.0204 21.1802 10.0464Z" fill="#FBB599"/>
<path d="M20.9664 9.61219C20.9558 9.59192 20.9452 9.57068 20.9346 9.55042C20.9452 9.57165 20.9558 9.59192 20.9664 9.61219Z" fill="#FBB599"/>
<path d="M21.6061 11.0754C21.5975 11.0503 21.5897 11.0252 21.5811 11.0001C21.5897 11.0252 21.5975 11.0503 21.6061 11.0754Z" fill="#FCC3A4"/>
<path d="M20.6944 9.10243C20.6577 9.0783 20.678 9.05514 20.6944 9.03101C20.6944 9.05514 20.6944 9.0783 20.6944 9.10243Z" fill="#FBBBA2"/>
<path d="M20.9793 9.63521C20.9755 9.62749 20.9716 9.61881 20.9668 9.61108C20.9707 9.61881 20.9745 9.62749 20.9793 9.63521Z" fill="#FBB599"/>
<path d="M20.9901 9.65938C20.9862 9.65166 20.9824 9.64298 20.9775 9.63525C20.9814 9.64298 20.9853 9.65166 20.9901 9.65938Z" fill="#FBB599"/>
<path d="M21.619 11.111C21.6151 11.0985 21.6103 11.0869 21.6064 11.0743C21.6103 11.0869 21.6151 11.0985 21.619 11.111Z" fill="#FCC3A4"/>
<path d="M21.1209 9.92006L21.1084 9.89014L21.1209 9.92006Z" fill="#FBB599"/>
<path d="M21.1327 9.94307C21.1288 9.93535 21.1249 9.92667 21.1201 9.91895C21.124 9.92667 21.1278 9.93535 21.1327 9.94307Z" fill="#FBB599"/>
<path d="M21.1454 9.96724C21.1415 9.95952 21.1376 9.95084 21.1328 9.94312C21.1367 9.95084 21.1405 9.95952 21.1454 9.96724Z" fill="#FBB599"/>
<path d="M21.0018 9.68258L20.9893 9.65845L21.0018 9.68258Z" fill="#FBB599"/>
<path d="M21.1092 9.8901C21.1054 9.88237 21.1015 9.87369 21.0967 9.86597C21.1005 9.87369 21.1044 9.88237 21.1092 9.8901Z" fill="#FBB599"/>
<path d="M21.0965 9.86702C21.0927 9.8593 21.0888 9.85062 21.084 9.8429C21.0878 9.85062 21.0917 9.8593 21.0965 9.86702Z" fill="#FBB599"/>
<path d="M21.0848 9.84285C21.081 9.83513 21.0771 9.82645 21.0723 9.81873C21.0761 9.82645 21.08 9.83513 21.0848 9.84285Z" fill="#FBB599"/>
<path d="M21.0731 9.81954C21.0692 9.81182 21.0654 9.80313 21.0605 9.79541C21.0644 9.80313 21.0683 9.81182 21.0731 9.81954Z" fill="#FBB599"/>
<path d="M21.0614 9.79537C21.0575 9.78765 21.0537 9.77896 21.0488 9.77124C21.0527 9.77896 21.0565 9.78765 21.0614 9.79537Z" fill="#FBB599"/>
<path d="M21.0497 9.77242C21.0458 9.7647 21.0419 9.75601 21.0371 9.74829C21.041 9.75601 21.0448 9.7647 21.0497 9.77242Z" fill="#FBB599"/>
<path d="M21.0262 9.72506C21.0224 9.71734 21.0185 9.70865 21.0137 9.70093C21.0175 9.70865 21.0214 9.71734 21.0262 9.72506Z" fill="#FBB599"/>
<path d="M21.0135 9.70096C21.0097 9.69516 21.0058 9.68841 21.001 9.68262C21.0048 9.68841 21.0087 9.69516 21.0135 9.70096Z" fill="#FBB599"/>
<path d="M21.0379 9.74825C21.0341 9.74053 21.0302 9.73184 21.0254 9.72412C21.0293 9.73184 21.0331 9.74053 21.0379 9.74825Z" fill="#FBB599"/>
<path d="M2.82369 2.39345H3.10359C3.10359 2.39345 3.10359 2.38573 3.10359 2.38187H2.83624C2.85651 2.21683 2.90091 2.06336 2.96461 1.91859C3.0148 1.80373 3.08429 1.69756 3.14413 1.58657C3.1615 1.55472 3.18177 1.55086 3.21652 1.55858C3.58135 1.63386 3.91337 1.78925 4.23864 1.96395C4.62278 2.1705 4.98086 2.41662 5.32542 2.68204C5.49626 2.8133 5.66323 2.95132 5.82442 3.09513C6.05316 3.29975 6.27708 3.51016 6.50004 3.7225C6.65543 3.87017 6.806 4.02363 6.9556 4.17806C7.05694 4.2823 7.15153 4.39233 7.25287 4.50429C6.54058 4.8865 5.91128 5.37198 5.33411 5.92888C4.75694 6.48482 4.26277 7.10736 3.85546 7.81097C3.81203 7.69805 3.76956 7.59477 3.73385 7.48957C3.61127 7.1257 3.47808 6.76472 3.37288 6.39603C3.23582 5.91923 3.11421 5.43664 3.00032 4.95406C2.93662 4.68574 2.89415 4.41163 2.85747 4.13849C2.82273 3.87403 2.80535 3.60764 2.78509 3.34222C2.7764 3.2264 2.76868 3.10961 2.77447 2.99379C2.78509 2.79496 2.80632 2.59614 2.82369 2.39345V2.39345Z" fill="#FE8800"/>
<path d="M16.7314 4.50353C16.7807 4.44562 16.826 4.38964 16.8743 4.33655C16.9833 4.21784 17.0924 4.09816 17.2044 3.98233C17.3964 3.78351 17.5866 3.58275 17.7854 3.39165C17.964 3.21985 18.1473 3.05191 18.3394 2.89652C18.6135 2.67356 18.8905 2.45157 19.1801 2.24985C19.5575 1.98636 19.959 1.76437 20.3991 1.61863C20.4734 1.59353 20.5506 1.57519 20.6269 1.55975C20.6433 1.55589 20.6722 1.5694 20.6838 1.58388C20.8508 1.80876 20.9309 2.0684 20.9878 2.33768C20.9946 2.37146 20.9801 2.38401 20.9463 2.38304C20.8778 2.38111 20.8093 2.38304 20.7408 2.39462H20.9985C21.012 2.48246 21.0294 2.5645 21.0351 2.64847C21.0467 2.82123 21.0622 2.994 21.0573 3.16676C21.0515 3.38586 21.0361 3.60592 21.012 3.82405C20.9792 4.11553 20.9396 4.40701 20.8923 4.69753C20.8576 4.90794 20.8093 5.11738 20.761 5.32489C20.6269 5.90979 20.4657 6.48696 20.2756 7.05545C20.1945 7.29771 20.1095 7.539 20.0256 7.78126C20.0227 7.78898 20.0178 7.79477 20.0111 7.80732C19.2129 6.41457 18.1261 5.31427 16.7305 4.50353H16.7314Z" fill="#FE8800"/>
<path d="M9.22835 13.0723C8.83842 13.0742 8.45621 13.0115 8.0769 12.9275C7.59528 12.8213 7.12427 12.6795 6.67354 12.4777C6.30677 12.3137 5.95738 12.1216 5.68134 11.8195C5.66203 11.7983 5.6437 11.7664 5.64273 11.7384C5.63597 11.5155 5.62825 11.2925 5.63018 11.0696C5.63211 10.9016 5.66879 10.7385 5.74697 10.587C5.77013 10.5416 5.80102 10.5233 5.85314 10.5213C6.17551 10.5069 6.46892 10.614 6.75847 10.7317C7.3009 10.9537 7.80858 11.2423 8.31047 11.5406C8.6116 11.7191 8.91467 11.8967 9.18878 12.1177C9.39532 12.2837 9.56809 12.4797 9.6733 12.7268C9.6926 12.7731 9.70804 12.8233 9.71673 12.8725C9.72927 12.9507 9.71673 12.9825 9.64241 13.0047C9.54203 13.0356 9.43683 13.0511 9.33259 13.0694C9.29784 13.0752 9.26213 13.0704 9.22642 13.0704L9.22835 13.0723Z" fill="#010101"/>
<path d="M18.4411 11.3002C18.4343 11.4324 18.4324 11.5647 18.4189 11.6959C18.414 11.7384 18.389 11.7847 18.36 11.8195C18.1843 12.027 17.9623 12.1766 17.7249 12.3059C17.2211 12.58 16.6845 12.7663 16.1276 12.8927C15.8351 12.9593 15.5378 13.0076 15.2396 13.0452C15.0195 13.0732 14.7946 13.0829 14.5736 13.0375C14.5379 13.0298 14.5022 13.0153 14.4694 12.9979C14.4057 12.9632 14.3922 12.9227 14.4066 12.8493C14.451 12.6312 14.5746 12.4574 14.7203 12.2963C14.9249 12.0704 15.1711 11.8976 15.4288 11.7384C15.9229 11.4334 16.4152 11.1274 16.9373 10.8717C17.2356 10.7259 17.5377 10.5889 17.8649 10.5194C17.9759 10.4962 18.0907 10.4962 18.2046 10.4866C18.2625 10.4817 18.2963 10.5145 18.3204 10.5609C18.3851 10.6825 18.416 10.8147 18.4266 10.9498C18.4362 11.0657 18.4285 11.1824 18.4285 11.2992C18.4324 11.2992 18.4362 11.2992 18.4401 11.2992L18.4411 11.3002Z" fill="#010101"/>
<path d="M12.581 17.8635C12.581 17.8635 12.5887 17.8683 12.5916 17.8673C12.7142 17.848 12.7798 17.9194 12.8271 18.0179C12.8309 18.0247 12.8358 18.0304 12.8406 18.0372C12.8802 18.0961 12.9072 18.1762 12.9632 18.2061C13.0163 18.2351 13.0983 18.2129 13.1668 18.2138C13.4429 18.2158 13.7199 18.2196 13.9959 18.2187C14.0162 18.2187 14.0461 18.1945 14.0557 18.1743C14.0886 18.1106 14.1339 18.0912 14.2053 18.0932C14.4187 18.099 14.632 18.0951 14.8453 18.0951C14.8771 18.0951 14.908 18.0951 14.9495 18.0951C14.9215 18.2022 14.8954 18.3017 14.8694 18.4011C14.8317 18.5439 14.7912 18.6848 14.7584 18.8286C14.7487 18.8711 14.7314 18.8846 14.6918 18.8798C14.6841 18.8798 14.6764 18.8798 14.6677 18.8798C14.6146 18.8817 14.5499 18.8644 14.5132 18.8894C14.4766 18.9145 14.4679 18.9811 14.4476 19.0304C14.3559 19.2514 14.2652 19.4724 14.1735 19.6925C14.1658 19.7098 14.1571 19.7263 14.1465 19.7485C14.0982 19.6703 14.0519 19.5969 14.0085 19.5226C13.9988 19.5052 13.9969 19.4821 13.9969 19.4608C13.9969 19.1568 13.9969 18.8528 13.9969 18.5487V18.4812C12.8609 18.6742 11.7268 18.679 10.5879 18.4918C10.5859 18.5179 10.584 18.5343 10.585 18.5516C10.5908 18.8711 10.5975 19.1915 10.6024 19.511C10.6024 19.5371 10.5956 19.566 10.5831 19.5882C10.5502 19.6442 10.5126 19.6973 10.4721 19.7571C10.4557 19.732 10.4412 19.7118 10.4286 19.6905C10.2867 19.4464 10.1844 19.1858 10.1236 18.9097C10.1159 18.874 10.1034 18.8634 10.0696 18.8672C10.0088 18.873 9.94797 18.8769 9.87848 18.8817C9.85628 18.7485 9.83118 18.6202 9.81574 18.4899C9.80705 18.4194 9.79837 18.3567 9.73177 18.3132C9.6893 18.2852 9.65552 18.2437 9.61402 18.2148C9.56962 18.1829 9.55418 18.1443 9.56286 18.0845C9.58217 18.0845 9.60244 18.0845 9.62367 18.0845C9.89392 18.0874 10.1651 18.0922 10.4354 18.0932C10.473 18.0932 10.4875 18.1057 10.4943 18.1414C10.4991 18.1665 10.5029 18.1916 10.5444 18.1926C10.9276 18.2022 11.3098 18.2138 11.693 18.2273C11.7384 18.2293 11.7625 18.2148 11.7857 18.1762C11.8378 18.0884 11.8995 18.0063 11.9507 17.9175C11.9787 17.8702 12.0105 17.8509 12.0636 17.8577C12.0887 17.8606 12.1148 17.8577 12.1437 17.8577C12.1457 17.8403 12.1476 17.8258 12.1476 17.8104C12.1447 17.5836 12.1418 17.3558 12.1399 17.129C12.1399 17.0942 12.1283 17.0778 12.0964 17.0643C11.8301 16.9523 11.5685 16.8307 11.3311 16.6647C11.0859 16.4939 10.8765 16.2912 10.7664 16.0065C10.7423 15.9437 10.7298 15.8733 10.7269 15.8057C10.7191 15.5982 10.7143 15.3907 10.7162 15.1841C10.7182 14.9284 10.8649 14.7267 11.0927 14.6552C11.1264 14.6446 11.1622 14.6359 11.1969 14.6359C11.8706 14.634 12.5433 14.633 13.217 14.635C13.2556 14.635 13.2952 14.6572 13.3319 14.6736C13.4496 14.7267 13.5558 14.7952 13.6349 14.9014C13.7035 14.993 13.7469 15.0954 13.745 15.2063C13.7411 15.4505 13.7372 15.6957 13.7112 15.9389C13.6842 16.1841 13.5616 16.3935 13.3927 16.5701C13.1755 16.7979 12.9149 16.9601 12.6186 17.0633C12.5781 17.0778 12.5617 17.0952 12.5617 17.1415C12.5646 17.3799 12.5626 17.6193 12.5626 17.8577C12.5684 17.8586 12.5742 17.8606 12.58 17.8615L12.581 17.8635Z" fill="#010101"/>
<path d="M13.143 18.8508C13.1459 18.8653 13.1488 18.872 13.1488 18.8769C13.145 18.9386 13.1643 19.0236 13.1314 19.0564C13.0677 19.1201 12.9761 19.1568 12.8931 19.2002C12.8815 19.207 12.8525 19.1915 12.8371 19.1799C12.7753 19.1346 12.7155 19.0863 12.6518 19.0361C12.5572 19.1365 12.4664 19.2398 12.368 19.3353C12.3352 19.3672 12.2879 19.3874 12.2425 19.401C12.1836 19.4193 12.1335 19.3942 12.0987 19.345C12.035 19.2552 11.9742 19.1626 11.9086 19.0747C11.8912 19.0516 11.8593 19.0294 11.8304 19.0255C11.675 19.0014 11.675 19.0033 11.6065 19.1452C11.5968 19.1664 11.5862 19.1867 11.5717 19.2166C11.452 19.1664 11.3353 19.1182 11.2194 19.066C11.205 19.0593 11.1914 19.0352 11.1905 19.0178C11.1866 18.9628 11.1895 18.9078 11.1895 18.8489H13.144L13.143 18.8508Z" fill="#020202"/>
</g>
<defs>
<clipPath id="clip0_1_9380">
<rect width="23.9884" height="24" fill="white"/>
</clipPath>
</defs>
</svg>
