<svg width="24" height="24" viewBox="0 0 24 24" fill="none" xmlns="http://www.w3.org/2000/svg">
<g clip-path="url(#clip0_1_9357)">
<circle cx="12.5" cy="11.7754" r="9.5" fill="white"/>
<path d="M11.5377 0.0119629C11.8494 0.0119629 12.1611 0.0119629 12.4736 0.0119629C12.4801 0.015193 12.4866 0.0216533 12.493 0.0216533C12.7522 0.0426493 13.0114 0.0612227 13.2707 0.0838337C13.4273 0.0975618 13.584 0.112097 13.739 0.134709C14.6556 0.267145 15.5463 0.4981 16.4071 0.839688C18.3678 1.61654 20.0136 2.82381 21.342 4.46068C22.1778 5.49029 22.8198 6.63054 23.2744 7.87495C23.5966 8.75759 23.8123 9.66607 23.9164 10.6004C23.9407 10.8136 23.96 11.0276 23.9738 11.2424C23.9875 11.4612 23.9972 11.6801 23.9972 11.8997C23.9972 12.1525 23.9859 12.4052 23.9746 12.658C23.9657 12.855 23.9592 13.0529 23.935 13.2483C23.8954 13.5713 23.8534 13.8943 23.7953 14.2141C23.566 15.4836 23.1396 16.6852 22.5105 17.8117C21.2507 20.0696 19.4516 21.7557 17.117 22.8661C15.8201 23.483 14.4497 23.8311 13.0228 23.9635C12.8322 23.9813 12.6408 23.9966 12.4502 23.9982C12.1288 24.0015 11.8082 23.9982 11.4868 23.9869C11.2502 23.9789 11.0144 23.9603 10.7786 23.9377C10.5808 23.9191 10.3837 23.8941 10.1875 23.8642C9.76676 23.8004 9.35088 23.7148 8.93904 23.6066C7.4136 23.206 6.02222 22.5301 4.76407 21.5805C3.54065 20.6566 2.53285 19.5374 1.73823 18.2268C0.769996 16.6295 0.223293 14.8933 0.0488654 13.0359C0.0335222 12.8736 0.0319072 12.7097 0.0230243 12.5466C0.0222167 12.5256 0.0157564 12.5054 0.0117188 12.4852C0.0117188 12.1694 0.0117188 11.8537 0.0117188 11.5379C0.0157564 11.521 0.0214092 11.5048 0.0230243 11.4879C0.0359449 11.2997 0.0448278 11.1108 0.060171 10.9226C0.0916649 10.5326 0.146577 10.1457 0.219256 9.76136C0.47686 8.39743 0.955729 7.11587 1.65909 5.9191C2.38507 4.68357 3.30324 3.61116 4.41441 2.70591C5.88736 1.50671 7.5525 0.700792 9.40822 0.292986C9.74496 0.218692 10.0874 0.174278 10.4281 0.120173C10.5888 0.0951392 10.7503 0.0765659 10.9119 0.0612227C11.054 0.0483021 11.1969 0.0450719 11.3398 0.0353815C11.4061 0.0305362 11.4715 0.0200383 11.5377 0.0119629ZM12.8063 16.556C12.8233 16.5519 12.8346 16.5495 12.8459 16.5471C12.8596 16.5439 12.8734 16.5414 12.8871 16.539C13.3312 16.4542 13.7487 16.3008 14.1267 16.0497C14.696 15.6709 15.0787 15.1581 15.2378 14.4879C15.3299 14.1011 15.3186 13.7118 15.2572 13.3226C15.1563 12.6903 14.8373 12.2058 14.2785 11.8852C13.9022 11.6688 13.4935 11.5371 13.0704 11.4572C12.6472 11.3772 12.2201 11.3215 11.7953 11.2496C11.5038 11.2004 11.2171 11.1301 10.9474 11.0017C10.6672 10.8677 10.4612 10.6698 10.3894 10.3549C10.3425 10.1474 10.3353 9.93982 10.3845 9.73148C10.4403 9.49487 10.559 9.30025 10.7536 9.15328C10.9829 8.98128 11.2478 8.9086 11.5272 8.8771C11.8098 8.8448 12.0933 8.85369 12.3735 8.90133C12.711 8.95867 13.005 9.09756 13.2238 9.37132C13.3522 9.5304 13.4354 9.71291 13.5032 9.90429C13.5565 10.0561 13.6898 10.1562 13.8472 10.1579C14.1194 10.1603 14.3907 10.1619 14.6629 10.1579C14.8874 10.1538 15.0416 9.95436 14.9988 9.73471C14.7864 8.65019 13.924 7.84749 12.8257 7.7191C12.7627 7.71183 12.753 7.69083 12.7538 7.63511C12.7563 7.27334 12.7555 6.91156 12.7547 6.54978C12.7547 6.29945 12.5665 6.11129 12.3145 6.11048C12.0844 6.10967 11.8551 6.11048 11.6249 6.11048C11.5256 6.11048 11.4343 6.13552 11.3617 6.20658C11.2615 6.30429 11.2058 6.42461 11.205 6.56432C11.2026 6.90994 11.2034 7.25557 11.205 7.602C11.205 7.644 11.1985 7.6658 11.1493 7.67064C11.0645 7.67953 10.9797 7.69729 10.8957 7.71587C10.3425 7.83942 9.8459 8.07118 9.4381 8.47334C9.01898 8.8868 8.79853 9.39393 8.75654 9.97697C8.73796 10.2346 8.76542 10.4914 8.81549 10.7449C8.91643 11.248 9.16434 11.6583 9.58507 11.9587C9.86609 12.1597 10.1786 12.293 10.5073 12.3931C10.9207 12.5191 11.3439 12.591 11.7719 12.6491C11.977 12.6774 12.1805 12.7202 12.3832 12.767C12.6731 12.834 12.959 12.9164 13.2182 13.0706C13.4467 13.2063 13.6106 13.3945 13.6639 13.6585C13.689 13.7845 13.6906 13.9161 13.6946 14.0445C13.7035 14.3288 13.6034 14.5783 13.4233 14.7931C13.1075 15.1702 12.6796 15.3156 12.2071 15.3519C12.0472 15.3641 11.8841 15.356 11.7234 15.3406C11.5579 15.3245 11.3907 15.2986 11.23 15.2566C10.8158 15.1484 10.4887 14.9191 10.307 14.521C10.2416 14.3772 10.1996 14.2214 10.1584 14.0671C10.1059 13.8693 9.97592 13.7587 9.77322 13.7587C9.50916 13.7587 9.2459 13.7587 8.98184 13.7587C8.72181 13.7587 8.56515 13.9444 8.61279 14.1996C8.63541 14.3207 8.66125 14.4427 8.69597 14.5614C8.86959 15.1678 9.20795 15.6572 9.73446 16.0101C10.1132 16.2636 10.5347 16.413 10.9781 16.5067C11.0693 16.5261 11.1606 16.5414 11.2542 16.5592C11.2542 16.5891 11.2542 16.6125 11.2542 16.6367C11.2542 16.9945 11.2542 17.3522 11.2542 17.7099C11.2542 17.9571 11.4149 18.142 11.6637 18.1533C11.9245 18.1646 12.187 18.1557 12.4486 18.1509C12.5342 18.1492 12.6061 18.1064 12.6634 18.0443C12.753 17.9466 12.8039 17.8311 12.8039 17.6978C12.8047 17.4741 12.8039 17.2505 12.8039 17.026C12.8039 16.8725 12.8039 16.7183 12.8039 16.5584L12.8063 16.556ZM14.2583 20.0284C14.2583 20.0284 14.2583 20.0284 14.2591 20.0284C14.2591 20.1762 14.251 20.3248 14.2607 20.4717C14.2744 20.6744 14.4472 20.8214 14.637 20.7955C14.6927 20.7883 14.7444 20.7576 14.7985 20.7374C15.1022 20.6219 15.4123 20.5194 15.7086 20.3877C17.188 19.7304 18.4009 18.7404 19.3442 17.4249C20.0992 16.3719 20.5983 15.2058 20.8542 13.9355C20.9641 13.388 21.0133 12.8348 21.023 12.2776C21.0254 12.1484 21.019 12.0184 21.0117 11.8892C20.9972 11.6373 20.9875 11.3845 20.96 11.1334C20.9027 10.6085 20.7961 10.0916 20.6386 9.58774C19.8739 7.13282 18.3501 5.3086 16.0744 4.11102C15.6335 3.87926 15.17 3.69918 14.6992 3.54009C14.5918 3.50375 14.4852 3.51425 14.4028 3.59662C14.318 3.6806 14.2583 3.78478 14.2559 3.90671C14.2502 4.15867 14.2559 4.41062 14.2526 4.66257C14.2502 4.85476 14.44 5.14063 14.6394 5.19474C14.7024 5.21169 14.763 5.23996 14.8236 5.26499C16.8844 6.12825 18.2863 7.61896 19.0526 9.7121C19.2206 10.17 19.3401 10.6424 19.3926 11.1293C19.4209 11.3942 19.4532 11.6591 19.4645 11.9248C19.4742 12.1533 19.4629 12.3834 19.4507 12.612C19.4411 12.8042 19.4257 12.9972 19.3999 13.1877C19.328 13.7199 19.1899 14.2359 19.0066 14.7398C18.4898 16.1627 17.6225 17.3223 16.4023 18.2171C15.8435 18.6265 15.2362 18.9471 14.5878 19.1918C14.3859 19.2677 14.2688 19.4155 14.2575 19.6343C14.251 19.7659 14.2559 19.8984 14.2559 20.03L14.2583 20.0284ZM9.75304 4.2798H9.75142C9.75142 4.13363 9.75869 3.98747 9.74981 3.84211C9.73769 3.6483 9.57619 3.49891 9.39853 3.51506C9.33392 3.52071 9.27094 3.55463 9.20714 3.57562C8.42787 3.82758 7.69382 4.17562 7.01064 4.62784C5.78965 5.43619 4.82464 6.48195 4.1132 7.7619C3.42114 9.00712 3.05775 10.3468 2.9883 11.7665C2.97538 12.0346 2.9883 12.3051 2.99961 12.574C3.00768 12.7727 3.02625 12.9705 3.04886 13.1684C3.07067 13.3606 3.09893 13.5527 3.13366 13.7433C3.31535 14.7374 3.65371 15.6766 4.15277 16.556C5.02249 18.0863 6.23702 19.2628 7.79234 20.089C8.27847 20.3474 8.78803 20.5501 9.30889 20.7245C9.42841 20.7641 9.54469 20.7479 9.62706 20.6486C9.69974 20.5606 9.75788 20.4596 9.75707 20.3361C9.75627 20.1003 9.75788 19.8645 9.75707 19.6287C9.75627 19.4453 9.58103 19.199 9.40741 19.1352C8.26313 18.7137 7.27794 18.0532 6.46394 17.1455C5.30997 15.8591 4.68332 14.3441 4.55088 12.6265C4.52423 12.2857 4.54846 11.9409 4.56138 11.5985C4.56865 11.412 4.5953 11.2254 4.62275 11.0405C4.7237 10.3654 4.92235 9.71775 5.19691 9.09352C5.78238 7.7627 6.68763 6.70079 7.89732 5.8981C8.37538 5.58155 8.88493 5.32798 9.42114 5.12448C9.62545 5.04696 9.74254 4.89837 9.75304 4.6771C9.7595 4.54548 9.75384 4.41304 9.75384 4.28141L9.75304 4.2798Z" fill="#2775C9"/>
</g>
<defs>
<clipPath id="clip0_1_9357">
<rect width="24" height="24" fill="white"/>
</clipPath>
</defs>
</svg>
