<svg width="19" height="19" viewBox="0 0 19 19" fill="none" xmlns="http://www.w3.org/2000/svg">
<path d="M11.8361 13.1464C11.8361 13.533 12.1495 13.8464 12.5361 13.8464C12.9227 13.8464 13.2361 13.533 13.2361 13.1464H11.8361ZM15.7386 13.1464C15.7386 13.533 16.052 13.8464 16.4386 13.8464C16.8252 13.8464 17.1386 13.533 17.1386 13.1464H15.7386ZM1.30952 14.5923C1.24597 14.9736 1.50358 15.3343 1.88492 15.3979C2.26626 15.4614 2.62692 15.2038 2.69048 14.8225L1.30952 14.5923ZM11.8363 6.12192C11.8363 7.89058 10.4025 9.32436 8.63388 9.32436V10.7244C11.1757 10.7244 13.2363 8.66378 13.2363 6.12192H11.8363ZM8.63388 9.32436C6.86523 9.32436 5.43145 7.89058 5.43145 6.12192H4.03145C4.03145 8.66378 6.09203 10.7244 8.63388 10.7244V9.32436ZM5.43145 6.12192C5.43145 4.35326 6.86523 2.91948 8.63388 2.91948V1.51948C6.09203 1.51948 4.03145 3.58006 4.03145 6.12192H5.43145ZM8.63388 2.91948C10.4025 2.91948 11.8363 4.35326 11.8363 6.12192H13.2363C13.2363 3.58006 11.1757 1.51948 8.63388 1.51948V2.91948ZM13.2361 13.1464C13.2361 12.2637 13.3218 11.6313 13.5242 11.2342C13.6164 11.053 13.7246 10.9386 13.851 10.8639C13.98 10.7877 14.1762 10.7244 14.4874 10.7244V9.32441C13.9834 9.32441 13.5282 9.42842 13.1385 9.65876C12.7462 9.89067 12.4685 10.2223 12.2767 10.5986C11.911 11.3164 11.8361 12.245 11.8361 13.1464H13.2361ZM14.4874 10.7244C14.7985 10.7244 14.9947 10.7877 15.1237 10.8639C15.2501 10.9386 15.3583 11.053 15.4506 11.2342C15.6529 11.6313 15.7386 12.2637 15.7386 13.1464H17.1386C17.1386 12.245 17.0637 11.3164 16.698 10.5986C16.5062 10.2223 16.2285 9.89067 15.8362 9.65876C15.4465 9.42842 14.9913 9.32441 14.4874 9.32441V10.7244ZM2.69048 14.8225C2.85074 13.8608 3.53202 12.7571 4.60494 11.9235C5.66626 11.099 7.05483 10.5837 8.57051 10.7215L8.69726 9.32724C6.77879 9.15283 5.04554 9.80833 3.74602 10.818C2.4581 11.8186 1.5395 13.2124 1.30952 14.5923L2.69048 14.8225ZM11.7561 13.8465H17.2195V12.4465H11.7561V13.8465ZM17.3 13.927V17.0489H18.7V13.927H17.3ZM17.2195 17.1294H11.7561V18.5294H17.2195V17.1294ZM11.6756 17.0489V13.927H10.2756V17.0489H11.6756ZM11.7561 17.1294C11.7116 17.1294 11.6756 17.0934 11.6756 17.0489H10.2756C10.2756 17.8666 10.9384 18.5294 11.7561 18.5294V17.1294ZM17.3 17.0489C17.3 17.0934 17.2639 17.1294 17.2195 17.1294V18.5294C18.0371 18.5294 18.7 17.8666 18.7 17.0489H17.3ZM17.2195 13.8465C17.2639 13.8465 17.3 13.8825 17.3 13.927H18.7C18.7 13.1093 18.0371 12.4465 17.2195 12.4465V13.8465ZM11.7561 12.4465C10.9384 12.4465 10.2756 13.1093 10.2756 13.927H11.6756C11.6756 13.8825 11.7116 13.8465 11.7561 13.8465V12.4465Z" fill="white"/>
</svg>
