<svg width="81" height="81" viewBox="0 0 81 81" fill="none" xmlns="http://www.w3.org/2000/svg">
<path d="M23.099 22.4562C31.4155 17.6546 35.395 15.3771 40.336 15.3771C45.277 15.3771 49.2565 17.6546 57.573 22.4562C61.7217 24.8514 64.7817 26.6195 66.8114 28.1553C68.8638 29.7084 69.6736 30.8885 69.6736 32.0616V32.1273V32.1926V32.2576V32.3222V32.3863V32.4502V32.5136V32.5767V32.6393V32.7017V32.7636V32.8252V32.8864V32.9472V33.0077V33.0678V33.1276V33.187V33.246V33.3047V33.363V33.4209V33.4785V33.5358V33.5927V33.6493V33.7055V33.7613V33.8169V33.872V33.9269V33.9814V34.0355V34.0894V34.1429V34.196V34.2488V34.3013V34.3535V34.4053V34.4568V34.508V34.5589V34.6094V34.6597V34.7096V34.7592V34.8084V34.8574V34.906V34.9544V35.0024V35.0501V35.0975V35.1446V35.1914V35.2379V35.2842V35.3301V35.3757V35.421V35.466V35.5107V35.5551V35.5993V35.6431V35.6867V35.73V35.773V35.8157V35.8582V35.9003V35.9422V35.9838V36.0251V36.0662V36.107V36.1475V36.1877V36.2277V36.2674V36.3069V36.3461V36.385V36.4237V36.4621V36.5002V36.5381V36.5758V36.6131V36.6503V36.6872V36.7238V36.7602V36.7964V36.8323V36.868V36.9034V36.9386V36.9735V37.0083V37.0427V37.077V37.111V37.1448V37.1784V37.2117V37.2448V37.2777V37.3104V37.3428V37.3751V37.4071V37.4389V37.4705V37.5018V37.533V37.564V37.5947V37.6252V37.6556V37.6857V37.7156V37.7453V37.7749V37.8042V37.8333V37.8623V37.891V37.9195V37.9479V37.9761V38.0041V38.0319V38.0595V38.0869V38.1142V38.1412V38.1681V38.1948V38.2214V38.2478V38.274V38.3V38.3258V38.3515V38.3771V38.4024V38.4276V38.4527V38.4775V38.5022V38.5268V38.5512V38.5755V38.5996V38.6235V38.6473V38.671V38.6945V38.7178V38.741V38.7641V38.787V38.8098V38.8325V38.855V38.8774V38.8997V38.9218V38.9438V38.9657V38.9874V39.009V39.0305V39.0519V39.0731V39.0942V39.1152V39.1361V39.1569V39.1776V39.1981V39.2186V39.2389V39.2592V39.2793V39.2993V39.3192V39.339V39.3587V39.3784V39.3979V39.4173V39.4366V39.4559V39.475V39.4941V39.5131V39.532V39.5508V39.5695V39.5881V39.6067V39.6252V39.6436V39.6619V39.6801V39.6983V39.7164V39.7345V39.7525V39.7704V39.7882V39.806V39.8237V39.8414V39.859V39.8765V39.894V39.9114V39.9288V39.9461V39.9634V39.9806V39.9978V40.0149V40.032V40.0491V40.0661V40.0831V40.1V40.1169V40.1338V40.1506V40.1674V40.1841V40.2009V40.2176V40.2343V40.2509V40.2676V40.2842V40.3008V40.3174V40.3339V40.3505V40.367V40.3835V40.4001V40.4166V40.4331V40.4495V40.466V40.4825V40.499V40.5155V40.532V40.5484V40.5649V40.5814V40.5979V40.6144V40.631V40.6475V40.664V40.6806V40.6972V40.7138V40.7304V40.747V40.7637V40.7804V40.7971V40.8138V40.8306V40.8474V40.8642V40.8811V40.898V40.9149V40.9319V40.9489V40.9659V40.983V41.0002V41.0174V41.0346V41.0519V41.0692V41.0866V41.104V41.1215V41.139V41.1566V41.1743V41.192V41.2098V41.2276V41.2455V41.2635V41.2815V41.2997V41.3178V41.3361V41.3544V41.3728V41.3913V41.4099V41.4285V41.4472V41.466V41.4849V41.5039V41.5229V41.5421V41.5613V41.5807V41.6001V41.6196V41.6392V41.659V41.6788V41.6987V41.7187V41.7388V41.7591V41.7794V41.7998V41.8204V41.8411V41.8618V41.8827V41.9038V41.9249V41.9461V41.9675V41.989V42.0106V42.0323V42.0542V42.0762V42.0983V42.1206V42.143V42.1655V42.1882V42.2109V42.2339V42.257V42.2802V42.3035V42.327V42.3507V42.3745V42.3984V42.4225V42.4468V42.4712V42.4958V42.5205V42.5454V42.5704V42.5956V42.6209V42.6465V42.6722V42.698V42.724V42.7502V42.7766V42.8032V42.8299V42.8568V42.8838V42.9111V42.9385V42.9661V42.9939V43.0219V43.0501V43.0785V43.107V43.1358V43.1647V43.1938V43.2232V43.2527V43.2824V43.3123V43.3425V43.3728V43.4033V43.4341V43.465V43.4962V43.5275V43.5591V43.5909V43.6229V43.6552V43.6876V43.7203V43.7532V43.7863V43.8196V43.8532V43.887V43.921V43.9553V43.9898V44.0245V44.0594V44.0946V44.1301V44.1657V44.2017V44.2378V44.2742V44.3109V44.3477V44.3849V44.4223V44.4599V44.4978V44.536V44.5744V44.6131V44.652V44.6912V44.7306V44.7703V44.8103V44.8506V44.8911V44.9319V44.9729V45.0143V45.0559V45.0977V45.1399V45.1823V45.2251V45.2681V45.3113V45.3549V45.3988V45.4429V45.4873V45.5321V45.5771V45.6224V45.668V45.7139V45.7601V45.8066V45.8534V45.9005V45.9479V45.9957V46.0437V46.092V46.1407V46.1896V46.2389V46.2885V46.3384V46.3886V46.4392V46.49V46.5412V46.5927V46.6446V46.6967V46.7492V46.8021V46.8552V46.9087V46.9625V47.0167V47.0712V47.126V47.1812V47.2367V47.2926V47.3488V47.4054V47.4623V47.5195V47.5772V47.6351V47.6934V47.7521V47.8111V47.8705V47.9303V47.9904V48.0509V48.1117V48.1729V48.2345V48.2964V48.3588V48.4214V48.4845V48.548V48.6118V48.676V48.7405V48.8055V48.8708V48.9366C69.6736 50.1096 68.8638 51.2897 66.8114 52.8428C64.7817 54.3787 61.7217 56.1467 57.573 58.5419C49.2565 63.3435 45.277 65.621 40.336 65.621C35.395 65.621 31.4155 63.3435 23.099 58.5419C18.9503 56.1467 15.8902 54.3787 13.8606 52.8428C11.8082 51.2897 10.9984 50.1096 10.9984 48.9366V32.0616C10.9984 30.8885 11.8082 29.7084 13.8606 28.1553C15.8902 26.6195 18.9503 24.8514 23.099 22.4562Z" fill="url(#paint0_linear_1_827)" stroke="url(#paint1_linear_1_827)" stroke-width="1.2"/>
<path d="M23.099 22.4562C31.4155 17.6546 35.395 15.3771 40.336 15.3771C45.277 15.3771 49.2565 17.6546 57.573 22.4562C61.7217 24.8514 64.7817 26.6195 66.8114 28.1553C68.8638 29.7084 69.6736 30.8885 69.6736 32.0616C69.6736 33.2346 68.8638 34.4147 66.8114 35.9678C64.7817 37.5037 61.7217 39.2717 57.573 41.6669C49.2565 46.4685 45.277 48.746 40.336 48.746C35.395 48.746 31.4155 46.4685 23.099 41.6669C18.9503 39.2717 15.8902 37.5037 13.8606 35.9678C11.8082 34.4147 10.9984 33.2346 10.9984 32.0616C10.9984 30.8885 11.8082 29.7084 13.8606 28.1553C15.8902 26.6195 18.9503 24.8514 23.099 22.4562Z" fill="white" stroke="url(#paint2_linear_1_827)" stroke-width="1.2"/>
<path d="M48.5483 25.041L41.855 23.2916C40.3157 22.8866 38.0748 23.1229 36.8862 23.8091L29.6473 27.9885C28.4977 28.6523 27.7475 29.9629 27.9813 30.8966L29.0433 35.121C29.3843 36.5104 31.6446 37.8154 34.0511 38.0123L41.3679 38.6254C42.9852 38.7604 45.2553 38.3273 46.4049 37.6635L53.6438 33.4841C54.8422 32.7923 55.2514 31.4985 54.5499 30.6098L51.5101 26.751C50.984 26.0985 49.659 25.3335 48.5483 25.041Z" stroke="black" stroke-width="1.2" stroke-linecap="round" stroke-linejoin="round"/>
<path d="M37.7522 29.6535V31.4648L46.131 31.4648" stroke="#6072D8" stroke-width="1.2" stroke-linecap="round" stroke-linejoin="round"/>
<defs>
<linearGradient id="paint0_linear_1_827" x1="70.2735" y1="44.7154" x2="10.3984" y2="44.7154" gradientUnits="userSpaceOnUse">
<stop stop-color="#F8F8FB"/>
<stop offset="0.398949" stop-color="white"/>
<stop offset="0.607454" stop-color="#F8F8FB"/>
<stop offset="1" stop-color="#E6EAFF"/>
</linearGradient>
<linearGradient id="paint1_linear_1_827" x1="10.3984" y1="50.3514" x2="70.0538" y2="49.8041" gradientUnits="userSpaceOnUse">
<stop stop-color="#6072D8"/>
<stop offset="1" stop-color="#575757"/>
</linearGradient>
<linearGradient id="paint2_linear_1_827" x1="10.3984" y1="38.6821" x2="70.0477" y2="37.8677" gradientUnits="userSpaceOnUse">
<stop stop-color="#6072D8"/>
<stop offset="1" stop-color="#575757"/>
</linearGradient>
</defs>
</svg>
