<svg width="21" height="22" viewBox="0 0 21 22" fill="none" xmlns="http://www.w3.org/2000/svg">
<path d="M15.1458 2.60024C15.0443 2.60297 14.9375 2.61665 14.8333 2.64399L4 5.64084C3.125 5.88146 2.5 6.72364 2.5 7.6752V17.3001C2.5 18.4513 3.40365 19.4001 4.5 19.4001H16.5C17.5964 19.4001 18.5 18.4513 18.5 17.3001V8.20019C18.5 7.04903 17.5964 6.10021 16.5 6.10021H7.58333L15.1667 4.00023V5.40022H16.5V4.00023C16.5 3.21273 15.862 2.5893 15.1458 2.60024ZM4.5 7.5002H16.5C16.8776 7.5002 17.1667 7.80371 17.1667 8.20019V17.3001C17.1667 17.6966 16.8776 18.0001 16.5 18.0001H4.5C4.1224 18.0001 3.83333 17.6966 3.83333 17.3001V8.20019C3.83333 7.80371 4.1224 7.5002 4.5 7.5002ZM14.8333 11.7002C14.2813 11.7002 13.8333 12.1705 13.8333 12.7502C13.8333 13.3298 14.2813 13.8001 14.8333 13.8001C15.3854 13.8001 15.8333 13.3298 15.8333 12.7502C15.8333 12.1705 15.3854 11.7002 14.8333 11.7002Z" fill="#292928"/>
</svg>
