<svg width="18" height="18" viewBox="0 0 18 18" fill="none" xmlns="http://www.w3.org/2000/svg">
<path d="M13.1811 1.80011C13.0896 1.80245 12.9936 1.81417 12.8998 1.83761L3.1498 4.40634C2.3623 4.61259 1.7998 5.33445 1.7998 6.15007V14.4C1.7998 15.3867 2.61309 16.2 3.5998 16.2H14.3998C15.3865 16.2 16.1998 15.3867 16.1998 14.4V6.60007C16.1998 5.61336 15.3865 4.80008 14.3998 4.80008H6.3748L13.1998 3.0001V4.20009H14.3998V3.0001C14.3998 2.3251 13.8256 1.79073 13.1811 1.80011ZM3.5998 6.00007H14.3998C14.7396 6.00007 14.9998 6.26023 14.9998 6.60007V14.4C14.9998 14.7398 14.7396 15 14.3998 15H3.5998C3.25996 15 2.9998 14.7398 2.9998 14.4V6.60007C2.9998 6.26023 3.25996 6.00007 3.5998 6.00007ZM12.8998 9.60004C12.4029 9.60004 11.9998 10.0032 11.9998 10.5C11.9998 10.9969 12.4029 11.4 12.8998 11.4C13.3967 11.4 13.7998 10.9969 13.7998 10.5C13.7998 10.0032 13.3967 9.60004 12.8998 9.60004Z" fill="white"/>
</svg>
